<?xml version="1.0" encoding="utf-8" standalone="no"?><!DOCTYPE svg PUBLIC "-//W3C//DTD SVG 1.1//EN" "http://www.w3.org/Graphics/SVG/1.1/DTD/svg11.dtd">
<svg preserveAspectRatio="xMinYMin meet" width="100%" height="100%" viewBox="0 0 525.000 393.750"  version="1.1" xmlns="http://www.w3.org/2000/svg" xmlns:xlink="http://www.w3.org/1999/xlink">
  <desc>Matlab Figure Converted by PLOT2SVG written by Juerg Schwizer</desc>
  <g id="topgroup">
  <rect x="0" y="0" width="525.000" height="393.750" fill="#ffffff" stroke="none" />
  <g id ="ID000000">
  <clipPath id="ID000001">
    <rect x="111.234" y="29.531" width="320.906" height="320.906"/>
  </clipPath>
    <g>
<g id="ID000002" clip-path="url(#ID000001)" >
      <polygon fill="#f99158" fill-opacity="0.65" stroke="#4c4c4c" stroke-width="0.1pt" stroke-opacity="1.00" stroke-dasharray="none" points="424.851,253.955 424.880,253.865 424.909,253.775 424.938,253.684 424.967,253.594 424.995,253.504 425.024,253.413 425.053,253.323 425.081,253.233 425.110,253.142 425.138,253.052 425.167,252.961 425.195,252.871 425.223,252.781 425.252,252.690 425.280,252.600 425.308,252.509 425.336,252.419 425.364,252.328 425.392,252.238 425.420,252.147 425.448,252.057 425.476,251.966 425.503,251.876 425.531,251.785 425.559,251.695 425.586,251.604 425.614,251.514 425.641,251.423 425.669,251.332 425.696,251.242 425.723,251.151 425.750,251.060 425.778,250.970 425.805,250.879 425.832,250.788 425.859,250.698 425.886,250.607 425.913,250.516 425.939,250.426 425.966,250.335 425.993,250.244 426.020,250.153 426.046,250.063 426.073,249.972 426.099,249.881 426.126,249.790 426.152,249.699 426.178,249.609 426.205,249.518 426.231,249.427 426.257,249.336 426.283,249.245 426.309,249.154 426.335,249.063 426.361,248.972 426.387,248.882 426.413,248.791 426.438,248.700 426.464,248.609 426.490,248.518 426.515,248.427 426.541,248.336 426.566,248.245 426.592,248.154 426.617,248.063 426.642,247.972 426.668,247.881 426.693,247.790 426.718,247.699 426.743,247.607 426.768,247.516 426.793,247.425 426.818,247.334 426.843,247.243 426.867,247.152 426.892,247.061 426.917,246.970 426.941,246.878 426.966,246.787 426.990,246.696 427.015,246.605 427.039,246.514 427.063,246.422 427.088,246.331 427.112,246.240 427.136,246.149 427.160,246.057 427.184,245.966 427.208,245.875 427.232,245.784 427.256,245.692 427.280,245.601 427.303,245.510 427.327,245.418 427.351,245.327 427.374,245.236 427.398,245.144 427.421,245.053 427.445,244.962 427.468,244.870 427.491,244.779 427.514,244.687 427.538,244.596 427.561,244.504 427.584,244.413 427.607,244.322 427.630,244.230 427.653,244.139 427.675,244.047 427.698,243.956 427.721,243.864 427.743,243.773 427.766,243.681 427.789,243.590 427.811,243.498 427.833,243.406 427.856,243.315 427.878,243.223 427.900,243.132 427.923,243.040 427.945,242.949 427.967,242.857 427.989,242.765 428.011,242.674 428.033,242.582 428.054,242.490 428.076,242.399 428.098,242.307 428.120,242.215 428.141,242.124 428.163,242.032 428.184,241.940 428.206,241.849 428.227,241.757 428.248,241.665 428.270,241.573 428.291,241.482 428.312,241.390 428.333,241.298 428.354,241.206 428.375,241.114 428.396,241.023 428.417,240.931 428.438,240.839 428.458,240.747 428.479,240.655 428.500,240.563 428.520,240.472 428.541,240.380 428.561,240.288 428.582,240.196 428.602,240.104 428.622,240.012 428.643,239.920 428.663,239.828 428.683,239.736 428.703,239.645 428.723,239.553 428.743,239.461 428.763,239.369 428.782,239.277 428.802,239.185 428.822,239.093 428.842,239.001 428.861,238.909 428.881,238.817 428.900,238.725 428.920,238.633 428.939,238.541 428.958,238.449 428.977,238.357 428.997,238.264 429.016,238.172 429.035,238.080 429.054,237.988 429.073,237.896 429.092,237.804 429.111,237.712 429.129,237.620 429.148,237.528 429.167,237.436 429.185,237.343 429.204,237.251 429.222,237.159 429.241,237.067 429.259,236.975 429.277,236.883 429.296,236.790 429.314,236.698 429.332,236.606 429.350,236.514 429.368,236.421 429.386,236.329 429.404,236.237 429.422,236.145 429.440,236.052 429.457,235.960 429.475,235.868 429.493,235.776 429.510,235.683 429.528,235.591 429.545,235.499 429.563,235.406 429.580,235.314 429.597,235.222 429.614,235.129 429.631,235.037 429.649,234.945 429.666,234.852 429.683,234.760 429.700,234.668 429.716,234.575 429.733,234.483 429.750,234.391 429.767,234.298 429.783,234.206 429.800,234.113 429.816,234.021 429.833,233.928 429.849,233.836 429.866,233.744 429.882,233.651 429.898,233.559 429.914,233.466 429.930,233.374 429.946,233.281 429.962,233.189 429.978,233.096 429.994,233.004 430.010,232.911 430.026,232.819 430.041,232.726 430.057,232.634 430.073,232.541 430.088,232.449 430.104,232.356 430.119,232.264 430.134,232.171 430.150,232.078 430.165,231.986 430.180,231.893 430.195,231.801 430.210,231.708 430.225,231.615 430.240,231.523 430.255,231.430 430.270,231.338 430.285,231.245 430.299,231.152 430.314,231.060 430.329,230.967 430.343,230.874 430.358,230.782 430.372,230.689 430.386,230.596 430.401,230.504 430.415,230.411 430.429,230.318 430.443,230.226 430.457,230.133 430.471,230.040 430.485,229.948 430.499,229.855 430.513,229.762 430.527,229.669 430.540,229.577 430.554,229.484 430.568,229.391 430.581,229.298 430.595,229.206 430.608,229.113 430.622,229.020 430.635,228.927 430.648,228.834 430.661,228.742 430.674,228.649 430.688,228.556 430.701,228.463 430.714,228.370 430.726,228.278 430.739,228.185 430.752,228.092 430.765,227.999 430.777,227.906 430.790,227.813 430.803,227.721 430.815,227.628 430.828,227.535 430.840,227.442 430.852,227.349 430.864,227.256 430.877,227.163 430.889,227.070 430.901,226.978 430.913,226.885 430.925,226.792 430.937,226.699 430.949,226.606 430.960,226.513 430.972,226.420 430.984,226.327 430.995,226.234 431.007,226.141 431.019,226.048 431.030,225.955 431.041,225.862 431.053,225.769 431.064,225.676 431.075,225.584 431.086,225.491 431.097,225.398 431.108,225.305 431.119,225.212 431.130,225.119 431.141,225.026 431.152,224.933 431.163,224.840 431.173,224.747 431.184,224.654 431.195,224.560 431.205,224.467 431.215,224.374 431.226,224.281 431.236,224.188 431.246,224.095 431.257,224.002 431.267,223.909 431.277,223.816 431.287,223.723 431.297,223.630 431.307,223.537 431.317,223.444 431.327,223.351 431.336,223.258 431.346,223.165 431.356,223.071 431.365,222.978 431.375,222.885 431.384,222.792 431.394,222.699 431.403,222.606 431.412,222.513 431.421,222.420 431.430,222.327 431.440,222.233 431.449,222.140 431.458,222.047 431.467,221.954 431.475,221.861 431.484,221.768 431.493,221.675 431.502,221.581 431.510,221.488 431.519,221.395 431.527,221.302 431.536,221.209 431.544,221.116 431.553,221.022 431.561,220.929 431.569,220.836 431.577,220.743 431.585,220.650 431.593,220.556 431.601,220.463 431.609,220.370 431.617,220.277 431.625,220.184 431.633,220.090 431.640,219.997 431.648,219.904 431.656,219.811 431.663,219.717 431.671,219.624 431.678,219.531 431.685,219.438 431.693,219.344 431.700,219.251 431.707,219.158 431.714,219.065 431.721,218.971 431.728,218.878 431.735,218.785 431.742,218.692 431.749,218.598 431.755,218.505 431.762,218.412 431.769,218.319 431.775,218.225 431.782,218.132 431.788,218.039 431.795,217.945 431.801,217.852 431.807,217.759 431.814,217.666 431.820,217.572 431.826,217.479 431.832,217.386 431.838,217.292 431.844,217.199 431.850,217.106 431.856,217.012 431.861,216.919 431.867,216.826 431.873,216.732 431.878,216.639 431.884,216.546 431.889,216.452 431.895,216.359 431.900,216.266 431.905,216.172 431.911,216.079 431.916,215.986 431.921,215.892 431.926,215.799 431.931,215.706 431.936,215.612 431.941,215.519 431.945,215.426 431.950,215.332 431.955,215.239 431.960,215.146 431.964,215.052 431.969,214.959 431.973,214.865 431.978,214.772 431.982,214.679 431.986,214.585 431.990,214.492 431.995,214.399 431.999,214.305 432.003,214.212 432.007,214.118 432.011,214.025 432.015,213.932 432.018,213.838 432.022,213.745 432.026,213.652 432.029,213.558 432.033,213.465 432.037,213.371 432.040,213.278 432.043,213.185 432.047,213.091 432.050,212.998 432.053,212.904 432.057,212.811 432.060,212.718 432.063,212.624 432.066,212.531 432.069,212.437 432.072,212.344 432.074,212.251 432.077,212.157 432.080,212.064 432.082,211.970 432.085,211.877 432.088,211.783 432.090,211.690 432.092,211.597 432.095,211.503 432.097,211.410 432.099,211.316 432.101,211.223 432.104,211.129 432.106,211.036 432.108,210.943 432.110,210.849 432.111,210.756 432.113,210.662 432.115,210.569 432.117,210.475 432.118,210.382 432.120,210.289 432.122,210.195 432.123,210.102 432.124,210.008 432.126,209.915 432.127,209.821 432.128,209.728 432.129,209.635 432.131,209.541 432.132,209.448 432.133,209.354 432.134,209.261 432.134,209.167 432.135,209.074 432.136,208.981 432.137,208.887 432.137,208.794 432.138,208.700 432.139,208.607 432.139,208.513 432.139,208.420 432.140,208.326 432.140,208.233 432.140,208.140 432.140,208.046 432.141,207.953 432.141,207.859 432.141,207.766 432.141,207.672 432.140,207.579 432.140,207.485 432.140,207.392 432.140,207.299 432.139,207.205 432.139,207.112 432.139,207.018 432.138,206.925 432.137,206.831 432.137,206.738 432.136,206.644 432.135,206.551 432.134,206.458 432.134,206.364 432.133,206.271 432.132,206.177 432.131,206.084 432.129,205.990 432.128,205.897 432.127,205.804 432.126,205.710 432.124,205.617 432.123,205.523 432.122,205.430 432.120,205.336 432.118,205.243 432.117,205.150 432.115,205.056 432.113,204.963 432.111,204.869 432.110,204.776 432.108,204.682 432.106,204.589 432.104,204.496 432.101,204.402 432.099,204.309 432.097,204.215 432.095,204.122 432.092,204.028 432.090,203.935 432.088,203.842 432.085,203.748 432.082,203.655 432.080,203.561 432.077,203.468 432.074,203.374 432.072,203.281 432.069,203.188 432.066,203.094 432.063,203.001 432.060,202.907 432.057,202.814 432.053,202.721 432.050,202.627 432.047,202.534 432.043,202.440 432.040,202.347 432.037,202.254 432.033,202.160 432.029,202.067 432.026,201.973 432.022,201.880 432.018,201.787 432.015,201.693 432.011,201.600 432.007,201.507 432.003,201.413 431.999,201.320 431.995,201.226 431.990,201.133 431.986,201.040 431.982,200.946 431.978,200.853 431.973,200.760 431.969,200.666 431.964,200.573 431.960,200.479 431.955,200.386 431.950,200.293 431.945,200.199 431.941,200.106 431.936,200.013 431.931,199.919 431.926,199.826 431.921,199.733 431.916,199.639 431.911,199.546 431.905,199.453 431.900,199.359 431.895,199.266 431.889,199.173 431.884,199.079 431.878,198.986 431.873,198.893 431.867,198.799 431.861,198.706 431.856,198.613 431.850,198.519 431.844,198.426 431.838,198.333 431.832,198.239 431.826,198.146 431.820,198.053 431.814,197.959 431.807,197.866 431.801,197.773 431.795,197.680 431.788,197.586 431.782,197.493 431.775,197.400 431.769,197.306 431.762,197.213 431.755,197.120 431.749,197.027 431.742,196.933 431.735,196.840 431.728,196.747 431.721,196.654 431.714,196.560 431.707,196.467 431.700,196.374 431.693,196.281 431.685,196.187 431.678,196.094 431.671,196.001 431.663,195.908 431.656,195.814 431.648,195.721 431.640,195.628 431.633,195.535 431.625,195.441 431.617,195.348 431.609,195.255 431.601,195.162 431.593,195.069 431.585,194.975 431.577,194.882 431.569,194.789 431.561,194.696 431.553,194.603 431.544,194.509 431.536,194.416 431.527,194.323 431.519,194.230 431.510,194.137 431.502,194.044 431.493,193.950 431.484,193.857 431.475,193.764 431.467,193.671 431.458,193.578 431.449,193.485 431.440,193.392 431.430,193.298 431.421,193.205 431.412,193.112 431.403,193.019 431.394,192.926 431.384,192.833 431.375,192.740 431.365,192.647 431.356,192.554 431.346,192.460 431.336,192.367 431.327,192.274 431.317,192.181 431.307,192.088 431.297,191.995 431.287,191.902 431.277,191.809 431.267,191.716 431.257,191.623 431.246,191.530 431.236,191.437 431.226,191.344 431.215,191.251 431.205,191.158 431.195,191.065 431.184,190.971 431.173,190.878 431.163,190.785 431.152,190.692 431.141,190.599 431.130,190.506 431.119,190.413 431.108,190.320 431.097,190.227 431.086,190.134 431.075,190.041 431.064,189.949 431.053,189.856 431.041,189.763 431.030,189.670 431.019,189.577 431.007,189.484 430.995,189.391 430.984,189.298 430.972,189.205 430.960,189.112 430.949,189.019 430.937,188.926 430.925,188.833 430.913,188.740 430.901,188.647 430.889,188.555 430.877,188.462 430.864,188.369 430.852,188.276 430.840,188.183 430.828,188.090 430.815,187.997 430.803,187.904 430.790,187.812 430.777,187.719 430.765,187.626 430.752,187.533 430.739,187.440 430.726,187.347 430.714,187.255 430.701,187.162 430.688,187.069 430.674,186.976 430.661,186.883 430.648,186.791 430.635,186.698 430.622,186.605 430.608,186.512 430.595,186.419 430.581,186.327 430.568,186.234 430.554,186.141 430.540,186.048 430.527,185.956 430.513,185.863 430.499,185.770 430.485,185.677 430.471,185.585 430.457,185.492 430.443,185.399 430.429,185.307 430.415,185.214 430.401,185.121 430.386,185.029 430.372,184.936 430.358,184.843 430.343,184.751 430.329,184.658 430.314,184.565 430.299,184.473 430.285,184.380 430.270,184.287 430.255,184.195 430.240,184.102 430.225,184.010 430.210,183.917 430.195,183.824 430.180,183.732 430.165,183.639 430.150,183.547 430.134,183.454 430.119,183.361 430.104,183.269 430.088,183.176 430.073,183.084 430.057,182.991 430.041,182.899 430.026,182.806 430.010,182.714 429.994,182.621 429.978,182.529 429.962,182.436 429.946,182.344 429.930,182.251 429.914,182.159 429.898,182.066 429.882,181.974 429.866,181.881 429.849,181.789 429.833,181.697 429.816,181.604 429.800,181.512 429.783,181.419 429.767,181.327 429.750,181.234 429.733,181.142 429.716,181.050 429.700,180.957 429.683,180.865 429.666,180.773 429.649,180.680 429.631,180.588 429.614,180.496 429.597,180.403 429.580,180.311 429.563,180.219 429.545,180.126 429.528,180.034 429.510,179.942 429.493,179.849 429.475,179.757 429.457,179.665 429.440,179.573 429.422,179.480 429.404,179.388 429.386,179.296 429.368,179.204 429.350,179.111 429.332,179.019 429.314,178.927 429.296,178.835 429.277,178.742 429.259,178.650 429.241,178.558 429.222,178.466 429.204,178.374 429.185,178.282 429.167,178.189 429.148,178.097 429.129,178.005 429.111,177.913 429.092,177.821 429.073,177.729 429.054,177.637 429.035,177.545 429.016,177.453 428.997,177.361 428.977,177.268 428.958,177.176 428.939,177.084 428.920,176.992 428.900,176.900 428.881,176.808 428.861,176.716 428.842,176.624 428.822,176.532 428.802,176.440 428.782,176.348 428.763,176.256 428.743,176.164 428.723,176.072 428.703,175.980 428.683,175.889 428.663,175.797 428.643,175.705 428.622,175.613 428.602,175.521 428.582,175.429 428.561,175.337 428.541,175.245 428.520,175.153 428.500,175.062 428.479,174.970 428.458,174.878 428.438,174.786 428.417,174.694 428.396,174.602 428.375,174.511 428.354,174.419 428.333,174.327 428.312,174.235 428.291,174.143 428.270,174.052 428.248,173.960 428.227,173.868 428.206,173.776 428.184,173.685 428.163,173.593 428.141,173.501 428.120,173.410 428.098,173.318 428.076,173.226 428.054,173.135 428.033,173.043 428.011,172.951 427.989,172.860 427.967,172.768 427.945,172.676 427.923,172.585 427.900,172.493 427.878,172.402 427.856,172.310 427.833,172.219 427.811,172.127 427.789,172.035 427.766,171.944 427.743,171.852 427.721,171.761 427.698,171.669 427.675,171.578 427.653,171.486 427.630,171.395 427.607,171.303 427.584,171.212 427.561,171.121 427.538,171.029 427.514,170.938 427.491,170.846 427.468,170.755 427.445,170.663 427.421,170.572 427.398,170.481 427.374,170.389 427.351,170.298 427.327,170.207 427.303,170.115 427.280,170.024 427.256,169.933 427.232,169.841 427.208,169.750 427.184,169.659 427.160,169.568 427.136,169.476 427.112,169.385 427.088,169.294 427.063,169.203 427.039,169.111 427.015,169.020 426.990,168.929 426.966,168.838 426.941,168.747 426.917,168.655 426.892,168.564 426.867,168.473 426.843,168.382 426.818,168.291 426.793,168.200 426.768,168.109 426.743,168.018 426.718,167.926 426.693,167.835 426.668,167.744 426.642,167.653 426.617,167.562 426.592,167.471 426.566,167.380 426.541,167.289 426.515,167.198 426.490,167.107 426.464,167.016 426.438,166.925 426.413,166.834 426.387,166.743 426.361,166.653 426.335,166.562 426.309,166.471 426.283,166.380 426.257,166.289 426.231,166.198 426.205,166.107 426.178,166.016 426.152,165.926 426.126,165.835 426.099,165.744 426.073,165.653 426.046,165.562 426.020,165.472 425.993,165.381 425.966,165.290 425.939,165.199 425.913,165.109 425.886,165.018 425.859,164.927 425.832,164.837 425.805,164.746 425.778,164.655 425.750,164.565 425.723,164.474 425.696,164.383 425.669,164.293 425.641,164.202 425.614,164.111 425.586,164.021 425.559,163.930 425.531,163.840 425.503,163.749 425.476,163.659 425.448,163.568 425.420,163.478 425.392,163.387 425.364,163.297 425.336,163.206 425.308,163.116 425.280,163.025 425.252,162.935 425.223,162.844 425.195,162.754 425.167,162.664 425.138,162.573 425.110,162.483 425.081,162.392 425.053,162.302 425.024,162.212 424.995,162.121 424.967,162.031 424.938,161.941 424.909,161.850 424.880,161.760 424.851,161.670 218.203,207.812 424.851,253.955 "/>
</g>
<g id="ID000003" clip-path="url(#ID000001)" >
      <polygon fill="#69adde" fill-opacity="0.65" stroke="#4c4c4c" stroke-width="0.1pt" stroke-opacity="1.00" stroke-dasharray="none" points="424.851,161.670 424.822,161.580 424.793,161.489 424.764,161.399 424.734,161.309 424.705,161.219 424.676,161.129 424.646,161.038 424.617,160.948 424.587,160.858 424.558,160.768 424.528,160.678 424.499,160.588 424.469,160.498 424.439,160.408 424.409,160.317 424.379,160.227 424.349,160.137 424.319,160.047 424.289,159.957 424.259,159.867 424.229,159.777 424.199,159.687 424.168,159.597 424.138,159.507 424.108,159.418 424.077,159.328 424.047,159.238 424.016,159.148 423.985,159.058 423.955,158.968 423.924,158.878 423.893,158.788 423.862,158.698 423.831,158.609 423.800,158.519 423.769,158.429 423.738,158.339 423.707,158.250 423.676,158.160 423.645,158.070 423.613,157.980 423.582,157.891 423.551,157.801 423.519,157.711 423.488,157.622 423.456,157.532 423.424,157.442 423.393,157.353 423.361,157.263 423.329,157.173 423.297,157.084 423.265,156.994 423.233,156.905 423.201,156.815 423.169,156.726 423.137,156.636 423.105,156.547 423.072,156.457 423.040,156.368 423.008,156.278 422.975,156.189 422.943,156.099 422.910,156.010 422.878,155.920 422.845,155.831 422.812,155.742 422.779,155.652 422.747,155.563 422.714,155.474 422.681,155.384 422.648,155.295 422.615,155.206 422.582,155.117 422.548,155.027 422.515,154.938 422.482,154.849 422.449,154.760 422.415,154.670 422.382,154.581 422.348,154.492 422.315,154.403 422.281,154.314 422.247,154.225 422.214,154.135 422.180,154.046 422.146,153.957 422.112,153.868 422.078,153.779 422.044,153.690 422.010,153.601 421.976,153.512 421.942,153.423 421.908,153.334 421.873,153.245 421.839,153.156 421.804,153.067 421.770,152.978 421.736,152.889 421.701,152.801 421.666,152.712 421.632,152.623 421.597,152.534 421.562,152.445 421.527,152.356 421.492,152.268 421.457,152.179 421.422,152.090 421.387,152.001 421.352,151.912 421.317,151.824 421.282,151.735 421.246,151.646 421.211,151.558 421.176,151.469 421.140,151.380 421.105,151.292 421.069,151.203 421.033,151.115 420.998,151.026 420.962,150.937 420.926,150.849 420.890,150.760 420.854,150.672 420.819,150.583 420.782,150.495 420.746,150.406 420.710,150.318 420.674,150.229 420.638,150.141 420.602,150.053 420.565,149.964 420.529,149.876 420.492,149.787 420.456,149.699 420.419,149.611 420.383,149.522 420.346,149.434 420.309,149.346 420.272,149.258 420.235,149.169 420.199,149.081 420.162,148.993 420.125,148.905 420.088,148.817 420.050,148.728 420.013,148.640 419.976,148.552 419.939,148.464 419.901,148.376 419.864,148.288 419.826,148.200 419.789,148.112 419.751,148.024 419.714,147.936 419.676,147.848 419.638,147.760 419.600,147.672 419.563,147.584 419.525,147.496 419.487,147.408 419.449,147.320 419.411,147.232 419.373,147.144 419.334,147.056 419.296,146.968 419.258,146.881 419.219,146.793 419.181,146.705 419.143,146.617 419.104,146.530 419.065,146.442 419.027,146.354 418.988,146.266 418.949,146.179 418.911,146.091 418.872,146.003 418.833,145.916 418.794,145.828 418.755,145.740 418.716,145.653 418.677,145.565 418.638,145.478 418.598,145.390 418.559,145.303 418.520,145.215 418.480,145.128 418.441,145.040 418.401,144.953 418.362,144.865 418.322,144.778 418.282,144.691 418.243,144.603 418.203,144.516 418.163,144.428 418.123,144.341 418.083,144.254 418.043,144.167 418.003,144.079 417.963,143.992 417.923,143.905 417.883,143.818 417.842,143.730 417.802,143.643 417.762,143.556 417.721,143.469 417.681,143.382 417.640,143.295 417.600,143.207 417.559,143.120 417.518,143.033 417.477,142.946 417.437,142.859 417.396,142.772 417.355,142.685 417.314,142.598 417.273,142.511 417.232,142.424 417.191,142.337 417.149,142.251 417.108,142.164 417.067,142.077 417.025,141.990 416.984,141.903 416.943,141.816 416.901,141.730 416.859,141.643 416.818,141.556 416.776,141.469 416.734,141.383 416.692,141.296 416.651,141.209 416.609,141.122 416.567,141.036 416.525,140.949 416.483,140.863 416.440,140.776 416.398,140.689 416.356,140.603 416.314,140.516 416.271,140.430 416.229,140.343 416.187,140.257 416.144,140.170 416.101,140.084 416.059,139.997 416.016,139.911 415.973,139.825 415.931,139.738 415.888,139.652 415.845,139.566 415.802,139.479 415.759,139.393 415.716,139.307 415.673,139.220 415.630,139.134 415.586,139.048 415.543,138.962 415.500,138.876 415.456,138.789 415.413,138.703 415.369,138.617 415.326,138.531 415.282,138.445 415.239,138.359 415.195,138.273 415.151,138.187 415.107,138.101 415.063,138.015 415.020,137.929 414.976,137.843 414.932,137.757 414.887,137.671 414.843,137.585 414.799,137.499 414.755,137.413 414.711,137.328 414.666,137.242 414.622,137.156 414.577,137.070 414.533,136.984 414.488,136.899 414.444,136.813 414.399,136.727 414.354,136.642 414.309,136.556 414.265,136.470 414.220,136.385 414.175,136.299 414.130,136.214 414.085,136.128 414.040,136.042 413.994,135.957 413.949,135.871 413.904,135.786 413.859,135.700 413.813,135.615 413.768,135.530 413.722,135.444 413.677,135.359 413.631,135.273 413.585,135.188 413.540,135.103 413.494,135.017 413.448,134.932 413.402,134.847 413.356,134.762 413.310,134.676 413.264,134.591 413.218,134.506 413.172,134.421 413.126,134.336 413.080,134.251 413.033,134.165 412.987,134.080 412.941,133.995 412.894,133.910 412.848,133.825 412.801,133.740 412.755,133.655 412.708,133.570 412.661,133.485 412.614,133.400 412.568,133.315 412.521,133.231 412.474,133.146 412.427,133.061 412.380,132.976 412.333,132.891 412.285,132.806 412.238,132.722 412.191,132.637 412.144,132.552 412.096,132.468 412.049,132.383 412.001,132.298 411.954,132.214 411.906,132.129 411.859,132.044 411.811,131.960 411.763,131.875 411.716,131.791 411.668,131.706 411.620,131.622 411.572,131.537 411.524,131.453 411.476,131.368 411.428,131.284 411.380,131.200 411.331,131.115 411.283,131.031 411.235,130.947 411.186,130.862 411.138,130.778 411.089,130.694 411.041,130.610 410.992,130.525 410.944,130.441 410.895,130.357 410.846,130.273 410.797,130.189 410.749,130.105 410.700,130.020 410.651,129.936 410.602,129.852 410.553,129.768 410.504,129.684 410.454,129.600 410.405,129.516 410.356,129.432 410.307,129.349 410.257,129.265 410.208,129.181 410.158,129.097 410.109,129.013 410.059,128.929 410.010,128.846 409.960,128.762 409.910,128.678 409.860,128.594 409.811,128.511 409.761,128.427 409.711,128.343 409.661,128.260 409.611,128.176 409.560,128.092 409.510,128.009 409.460,127.925 409.410,127.842 409.359,127.758 409.309,127.675 409.259,127.591 409.208,127.508 409.158,127.424 409.107,127.341 409.056,127.258 409.006,127.174 408.955,127.091 408.904,127.008 408.853,126.924 408.802,126.841 408.752,126.758 408.701,126.675 408.649,126.592 408.598,126.508 408.547,126.425 408.496,126.342 408.445,126.259 408.393,126.176 408.342,126.093 408.291,126.010 408.239,125.927 408.188,125.844 408.136,125.761 408.084,125.678 408.033,125.595 407.981,125.512 407.929,125.429 407.877,125.346 407.825,125.264 407.773,125.181 407.721,125.098 407.669,125.015 407.617,124.932 407.565,124.850 407.513,124.767 407.461,124.684 407.408,124.602 407.356,124.519 407.304,124.436 407.251,124.354 407.199,124.271 407.146,124.189 407.093,124.106 407.041,124.024 406.988,123.941 406.935,123.859 406.882,123.776 406.830,123.694 406.777,123.612 406.724,123.529 406.671,123.447 406.618,123.365 406.564,123.282 406.511,123.200 406.458,123.118 406.405,123.036 406.351,122.954 406.298,122.871 406.244,122.789 406.191,122.707 406.137,122.625 406.084,122.543 406.030,122.461 405.976,122.379 405.923,122.297 405.869,122.215 405.815,122.133 405.761,122.051 405.707,121.969 405.653,121.887 405.599,121.805 405.545,121.723 405.491,121.642 405.437,121.560 405.382,121.478 405.328,121.396 405.274,121.315 405.219,121.233 405.165,121.151 405.110,121.070 405.056,120.988 405.001,120.906 404.946,120.825 404.891,120.743 404.837,120.662 404.782,120.580 404.727,120.499 404.672,120.417 404.617,120.336 404.562,120.254 404.507,120.173 404.452,120.092 404.397,120.010 404.341,119.929 404.286,119.848 404.231,119.767 404.175,119.685 404.120,119.604 404.064,119.523 404.009,119.442 403.953,119.361 403.897,119.279 403.842,119.198 403.786,119.117 403.730,119.036 403.674,118.955 403.618,118.874 403.562,118.793 403.506,118.712 403.450,118.631 403.394,118.551 403.338,118.470 403.282,118.389 403.226,118.308 403.169,118.227 403.113,118.146 403.057,118.066 403.000,117.985 402.944,117.904 402.887,117.824 402.830,117.743 402.774,117.662 402.717,117.582 402.660,117.501 402.603,117.421 402.546,117.340 402.490,117.260 402.433,117.179 402.376,117.099 402.318,117.018 402.261,116.938 402.204,116.857 402.147,116.777 402.090,116.697 402.032,116.616 401.975,116.536 401.917,116.456 401.860,116.376 401.802,116.295 401.745,116.215 401.687,116.135 401.630,116.055 401.572,115.975 401.514,115.895 401.456,115.815 401.398,115.735 401.340,115.655 401.282,115.575 401.224,115.495 401.166,115.415 401.108,115.335 401.050,115.255 400.992,115.175 400.933,115.095 400.875,115.016 400.817,114.936 400.758,114.856 400.700,114.776 400.641,114.697 400.583,114.617 400.524,114.537 400.465,114.458 400.407,114.378 400.348,114.299 400.289,114.219 400.230,114.140 400.171,114.060 400.112,113.981 400.053,113.901 399.994,113.822 399.935,113.742 399.876,113.663 399.816,113.584 399.757,113.504 399.698,113.425 399.638,113.346 399.579,113.267 399.519,113.187 399.460,113.108 399.400,113.029 399.341,112.950 399.281,112.871 399.221,112.792 399.161,112.713 399.102,112.634 399.042,112.555 398.982,112.476 398.922,112.397 398.862,112.318 398.802,112.239 398.742,112.160 398.681,112.081 398.621,112.002 398.561,111.924 398.501,111.845 398.440,111.766 398.380,111.687 398.319,111.609 398.259,111.530 398.198,111.451 398.137,111.373 398.077,111.294 398.016,111.216 397.955,111.137 397.894,111.059 397.834,110.980 397.773,110.902 397.712,110.823 397.651,110.745 397.590,110.667 397.528,110.588 397.467,110.510 397.406,110.432 397.345,110.353 397.283,110.275 397.222,110.197 397.161,110.119 397.099,110.041 397.038,109.962 396.976,109.884 396.914,109.806 396.853,109.728 396.791,109.650 396.729,109.572 396.668,109.494 396.606,109.416 396.544,109.338 396.482,109.261 396.420,109.183 396.358,109.105 396.296,109.027 396.233,108.949 396.171,108.872 396.109,108.794 396.047,108.716 395.984,108.639 395.922,108.561 395.860,108.483 395.797,108.406 395.734,108.328 395.672,108.251 395.609,108.173 395.547,108.096 395.484,108.018 395.421,107.941 395.358,107.863 395.295,107.786 395.232,107.709 395.169,107.631 395.106,107.554 395.043,107.477 394.980,107.400 394.917,107.322 394.854,107.245 394.790,107.168 394.727,107.091 394.664,107.014 394.600,106.937 394.537,106.860 394.473,106.783 394.410,106.706 394.346,106.629 394.282,106.552 394.219,106.475 394.155,106.398 394.091,106.321 394.027,106.245 393.963,106.168 393.899,106.091 393.835,106.014 393.771,105.938 393.707,105.861 393.643,105.784 393.579,105.708 393.515,105.631 393.450,105.555 393.386,105.478 393.322,105.402 393.257,105.325 393.193,105.249 393.128,105.172 393.064,105.096 392.999,105.019 392.934,104.943 392.870,104.867 392.805,104.791 392.740,104.714 392.675,104.638 392.610,104.562 392.545,104.486 392.480,104.410 392.415,104.334 392.350,104.257 392.285,104.181 392.220,104.105 392.155,104.029 392.089,103.953 392.024,103.877 391.959,103.802 391.893,103.726 391.828,103.650 391.762,103.574 391.696,103.498 391.631,103.422 391.565,103.347 391.499,103.271 391.434,103.195 391.368,103.120 391.302,103.044 391.236,102.969 391.170,102.893 391.104,102.817 391.038,102.742 390.972,102.666 390.906,102.591 390.840,102.516 390.773,102.440 390.707,102.365 390.641,102.289 390.574,102.214 390.508,102.139 390.441,102.064 390.375,101.988 390.308,101.913 390.242,101.838 390.175,101.763 390.108,101.688 390.041,101.613 389.975,101.538 389.908,101.463 389.841,101.388 389.774,101.313 389.707,101.238 389.640,101.163 389.573,101.088 389.506,101.013 389.438,100.939 389.371,100.864 389.304,100.789 389.237,100.714 389.169,100.640 389.102,100.565 389.034,100.490 388.967,100.416 388.899,100.341 388.832,100.267 388.764,100.192 388.696,100.118 388.628,100.043 388.561,99.969 388.493,99.894 388.425,99.820 388.357,99.746 388.289,99.671 388.221,99.597 388.153,99.523 388.085,99.449 388.016,99.374 387.948,99.300 387.880,99.226 387.812,99.152 387.743,99.078 387.675,99.004 387.606,98.930 387.538,98.856 387.469,98.782 387.401,98.708 387.332,98.634 387.263,98.560 387.195,98.487 387.126,98.413 387.057,98.339 386.988,98.265 386.919,98.192 386.850,98.118 386.781,98.044 386.712,97.971 386.643,97.897 386.574,97.823 386.505,97.750 386.436,97.676 386.366,97.603 386.297,97.530 386.227,97.456 386.158,97.383 386.089,97.309 386.019,97.236 385.949,97.163 385.880,97.090 385.810,97.016 385.740,96.943 385.671,96.870 385.601,96.797 385.531,96.724 385.461,96.651 385.391,96.578 385.321,96.505 385.251,96.432 385.181,96.359 385.111,96.286 385.041,96.213 384.971,96.140 384.900,96.067 384.830,95.995 384.760,95.922 384.689,95.849 384.619,95.776 384.548,95.704 384.478,95.631 384.407,95.558 384.337,95.486 384.266,95.413 384.195,95.341 384.125,95.268 384.054,95.196 383.983,95.123 383.912,95.051 383.841,94.979 383.770,94.906 383.699,94.834 383.628,94.762 383.557,94.690 383.486,94.617 383.414,94.545 383.343,94.473 383.272,94.401 383.201,94.329 383.129,94.257 383.058,94.185 382.986,94.113 382.915,94.041 382.843,93.969 382.771,93.897 382.700,93.825 382.628,93.753 382.556,93.681 382.484,93.610 382.413,93.538 382.341,93.466 382.269,93.395 382.197,93.323 382.125,93.251 382.053,93.180 381.981,93.108 381.908,93.037 381.836,92.965 381.764,92.894 381.692,92.822 381.619,92.751 381.547,92.680 381.474,92.608 381.402,92.537 381.329,92.466 381.257,92.394 381.184,92.323 381.112,92.252 381.039,92.181 380.966,92.110 380.893,92.039 380.821,91.968 380.748,91.897 380.675,91.826 380.602,91.755 380.529,91.684 380.456,91.613 380.383,91.542 380.309,91.471 380.236,91.401 380.163,91.330 380.090,91.259 380.016,91.188 379.943,91.118 379.870,91.047 379.796,90.976 379.723,90.906 379.649,90.835 379.575,90.765 379.502,90.694 379.428,90.624 379.354,90.554 379.281,90.483 379.207,90.413 379.133,90.343 379.059,90.272 378.985,90.202 378.911,90.132 378.837,90.062 378.763,89.992 378.689,89.921 378.615,89.851 378.541,89.781 378.466,89.711 378.392,89.641 378.318,89.571 378.243,89.501 378.169,89.432 378.094,89.362 378.020,89.292 377.945,89.222 377.871,89.152 377.796,89.083 377.721,89.013 377.647,88.943 377.572,88.874 377.497,88.804 377.422,88.734 377.347,88.665 377.272,88.595 377.197,88.526 377.122,88.457 377.047,88.387 376.972,88.318 376.897,88.248 376.822,88.179 376.746,88.110 376.671,88.041 376.596,87.972 376.520,87.902 376.445,87.833 376.369,87.764 376.294,87.695 376.218,87.626 376.143,87.557 376.067,87.488 375.991,87.419 375.915,87.350 375.840,87.281 375.764,87.213 375.688,87.144 375.612,87.075 375.536,87.006 375.460,86.938 375.384,86.869 375.308,86.800 375.232,86.732 375.156,86.663 375.079,86.594 375.003,86.526 374.927,86.458 374.851,86.389 374.774,86.321 374.698,86.252 374.621,86.184 374.545,86.116 374.468,86.047 374.392,85.979 374.315,85.911 374.238,85.843 374.161,85.775 374.085,85.707 374.008,85.639 373.931,85.570 373.854,85.502 373.777,85.435 373.700,85.367 373.623,85.299 373.546,85.231 373.469,85.163 373.392,85.095 373.315,85.027 373.237,84.960 373.160,84.892 373.083,84.824 373.005,84.757 372.928,84.689 372.850,84.622 372.773,84.554 372.695,84.487 372.618,84.419 372.540,84.352 372.463,84.284 372.385,84.217 372.307,84.150 372.229,84.082 372.151,84.015 372.074,83.948 371.996,83.881 371.918,83.813 371.840,83.746 371.762,83.679 371.683,83.612 371.605,83.545 371.527,83.478 371.449,83.411 371.371,83.344 371.292,83.277 371.214,83.211 371.136,83.144 371.057,83.077 370.979,83.010 370.900,82.944 370.822,82.877 370.743,82.810 370.664,82.744 370.586,82.677 370.507,82.610 370.428,82.544 370.349,82.478 370.271,82.411 370.192,82.345 370.113,82.278 370.034,82.212 369.955,82.146 369.876,82.079 369.797,82.013 369.717,81.947 369.638,81.881 369.559,81.815 369.480,81.749 218.203,207.812 424.851,161.670 "/>
</g>
<g id="ID000004" clip-path="url(#ID000001)" >
      <polygon fill="#f99158" fill-opacity="0.65" stroke="#4c4c4c" stroke-width="0.1pt" stroke-opacity="1.00" stroke-dasharray="none" points="369.480,81.749 369.400,81.683 369.321,81.617 369.242,81.551 369.162,81.485 369.083,81.419 369.003,81.353 368.924,81.287 368.844,81.221 368.765,81.155 368.685,81.090 368.605,81.024 368.525,80.958 368.446,80.893 368.366,80.827 368.286,80.761 368.206,80.696 368.126,80.630 368.046,80.565 367.966,80.500 367.886,80.434 367.806,80.369 367.725,80.303 367.645,80.238 367.565,80.173 367.485,80.108 367.404,80.042 367.324,79.977 367.244,79.912 367.163,79.847 367.083,79.782 367.002,79.717 366.921,79.652 366.841,79.587 366.760,79.522 366.679,79.457 366.599,79.393 366.518,79.328 366.437,79.263 366.356,79.198 366.275,79.134 366.194,79.069 366.113,79.004 366.032,78.940 365.951,78.875 365.870,78.811 365.789,78.746 365.708,78.682 365.627,78.617 365.545,78.553 365.464,78.489 365.383,78.424 365.301,78.360 365.220,78.296 365.138,78.232 365.057,78.167 364.975,78.103 364.894,78.039 364.812,77.975 364.730,77.911 364.649,77.847 364.567,77.783 364.485,77.719 364.403,77.655 364.321,77.592 364.239,77.528 364.157,77.464 364.075,77.400 363.993,77.337 363.911,77.273 363.829,77.209 363.747,77.146 363.665,77.082 363.582,77.019 363.500,76.955 363.418,76.892 363.336,76.828 363.253,76.765 363.171,76.702 363.088,76.638 363.006,76.575 362.923,76.512 362.841,76.449 362.758,76.386 362.675,76.322 362.592,76.259 362.510,76.196 362.427,76.133 362.344,76.070 362.261,76.007 362.178,75.944 362.095,75.882 362.012,75.819 361.929,75.756 361.846,75.693 361.763,75.631 361.680,75.568 361.597,75.505 361.514,75.443 361.430,75.380 361.347,75.317 361.264,75.255 361.180,75.192 361.097,75.130 361.013,75.068 360.930,75.005 360.846,74.943 360.763,74.881 360.679,74.818 360.595,74.756 360.512,74.694 360.428,74.632 360.344,74.570 360.260,74.508 360.176,74.446 360.093,74.384 360.009,74.322 359.925,74.260 359.841,74.198 359.757,74.136 359.672,74.074 359.588,74.013 359.504,73.951 359.420,73.889 359.336,73.827 359.251,73.766 359.167,73.704 359.083,73.643 358.998,73.581 358.914,73.520 358.829,73.458 358.745,73.397 358.660,73.336 358.576,73.274 358.491,73.213 358.406,73.152 358.322,73.090 358.237,73.029 358.152,72.968 358.067,72.907 357.982,72.846 357.898,72.785 357.813,72.724 357.728,72.663 357.643,72.602 357.557,72.541 357.472,72.480 357.387,72.419 357.302,72.359 357.217,72.298 357.132,72.237 357.046,72.177 356.961,72.116 356.876,72.055 356.790,71.995 356.705,71.934 356.619,71.874 356.534,71.813 356.448,71.753 356.363,71.693 356.277,71.632 356.191,71.572 356.106,71.512 356.020,71.452 355.934,71.391 355.848,71.331 355.762,71.271 355.677,71.211 355.591,71.151 355.505,71.091 355.419,71.031 355.333,70.971 355.246,70.911 355.160,70.852 355.074,70.792 354.988,70.732 354.902,70.672 354.816,70.613 354.729,70.553 354.643,70.493 354.556,70.434 354.470,70.374 354.384,70.315 354.297,70.255 354.211,70.196 354.124,70.136 354.037,70.077 353.951,70.018 353.864,69.958 353.777,69.899 353.691,69.840 353.604,69.781 353.517,69.722 353.430,69.663 353.343,69.604 353.256,69.545 353.169,69.486 353.082,69.427 352.995,69.368 352.908,69.309 352.821,69.250 352.734,69.191 352.647,69.133 352.559,69.074 352.472,69.015 352.385,68.957 352.297,68.898 352.210,68.840 352.123,68.781 352.035,68.723 351.948,68.664 351.860,68.606 351.772,68.547 351.685,68.489 351.597,68.431 351.510,68.373 351.422,68.314 351.334,68.256 351.246,68.198 351.158,68.140 351.071,68.082 350.983,68.024 350.895,67.966 350.807,67.908 350.719,67.850 350.631,67.792 350.543,67.734 350.455,67.677 350.366,67.619 350.278,67.561 350.190,67.503 350.102,67.446 350.013,67.388 349.925,67.331 349.837,67.273 349.748,67.216 349.660,67.158 349.571,67.101 349.483,67.044 349.394,66.986 349.306,66.929 349.217,66.872 349.128,66.814 349.040,66.757 348.951,66.700 348.862,66.643 348.773,66.586 348.685,66.529 348.596,66.472 348.507,66.415 348.418,66.358 348.329,66.301 348.240,66.245 348.151,66.188 348.062,66.131 347.972,66.074 347.883,66.018 347.794,65.961 347.705,65.905 347.616,65.848 347.526,65.791 347.437,65.735 347.348,65.679 347.258,65.622 347.169,65.566 347.079,65.510 346.990,65.453 346.900,65.397 346.811,65.341 346.721,65.285 346.631,65.229 346.542,65.172 346.452,65.116 346.362,65.060 346.272,65.005 346.182,64.949 346.093,64.893 346.003,64.837 345.913,64.781 345.823,64.725 345.733,64.670 345.643,64.614 345.553,64.558 345.463,64.503 345.372,64.447 345.282,64.392 345.192,64.336 345.102,64.281 345.011,64.225 344.921,64.170 344.831,64.115 344.740,64.059 344.650,64.004 344.559,63.949 344.469,63.894 344.378,63.839 344.288,63.783 344.197,63.728 344.107,63.673 344.016,63.618 343.925,63.563 343.834,63.509 343.744,63.454 343.653,63.399 343.562,63.344 343.471,63.289 343.380,63.235 343.289,63.180 343.198,63.125 343.107,63.071 343.016,63.016 342.925,62.962 342.834,62.907 342.743,62.853 342.652,62.799 342.560,62.744 342.469,62.690 342.378,62.636 342.287,62.581 342.195,62.527 342.104,62.473 342.012,62.419 341.921,62.365 341.829,62.311 341.738,62.257 341.646,62.203 341.555,62.149 341.463,62.095 341.371,62.042 341.280,61.988 341.188,61.934 341.096,61.880 341.004,61.827 340.913,61.773 340.821,61.719 340.729,61.666 340.637,61.612 340.545,61.559 340.453,61.506 340.361,61.452 340.269,61.399 340.177,61.346 340.085,61.292 339.992,61.239 339.900,61.186 339.808,61.133 339.716,61.080 339.623,61.027 339.531,60.974 339.439,60.921 339.346,60.868 339.254,60.815 339.161,60.762 339.069,60.709 338.976,60.656 338.884,60.604 338.791,60.551 338.699,60.498 338.606,60.446 338.513,60.393 338.420,60.341 338.328,60.288 338.235,60.236 338.142,60.183 338.049,60.131 337.956,60.079 337.863,60.026 337.770,59.974 337.677,59.922 337.584,59.870 337.491,59.818 337.398,59.766 337.305,59.713 337.212,59.661 337.119,59.610 337.025,59.558 336.932,59.506 336.839,59.454 336.746,59.402 336.652,59.350 336.559,59.299 336.465,59.247 336.372,59.195 336.278,59.144 336.185,59.092 336.091,59.041 335.998,58.989 335.904,58.938 335.811,58.886 335.717,58.835 335.623,58.784 335.529,58.732 335.436,58.681 335.342,58.630 335.248,58.579 335.154,58.528 335.060,58.477 334.966,58.426 334.872,58.375 334.778,58.324 334.684,58.273 334.590,58.222 334.496,58.171 334.402,58.120 334.308,58.070 334.214,58.019 334.119,57.968 334.025,57.918 333.931,57.867 333.836,57.817 333.742,57.766 333.648,57.716 333.553,57.665 333.459,57.615 333.364,57.565 333.270,57.514 333.175,57.464 333.081,57.414 332.986,57.364 332.891,57.314 332.797,57.264 332.702,57.214 332.607,57.164 332.513,57.114 332.418,57.064 332.323,57.014 332.228,56.964 332.133,56.914 332.038,56.865 331.943,56.815 331.848,56.765 331.753,56.716 331.658,56.666 331.563,56.616 331.468,56.567 331.373,56.518 331.278,56.468 331.183,56.419 331.087,56.369 330.992,56.320 330.897,56.271 330.801,56.222 330.706,56.173 330.611,56.123 330.515,56.074 330.420,56.025 330.324,55.976 330.229,55.927 330.133,55.878 330.038,55.830 329.942,55.781 329.847,55.732 329.751,55.683 329.655,55.635 329.559,55.586 329.464,55.537 329.368,55.489 329.272,55.440 329.176,55.392 329.080,55.343 328.984,55.295 328.888,55.246 328.792,55.198 328.696,55.150 328.600,55.102 328.504,55.053 328.408,55.005 328.312,54.957 328.216,54.909 328.120,54.861 328.024,54.813 327.927,54.765 327.831,54.717 327.735,54.669 327.638,54.622 327.542,54.574 327.446,54.526 327.349,54.478 327.253,54.431 327.156,54.383 327.060,54.336 326.963,54.288 326.867,54.241 326.770,54.193 326.673,54.146 326.577,54.098 326.480,54.051 326.383,54.004 326.287,53.956 326.190,53.909 326.093,53.862 325.996,53.815 325.899,53.768 325.802,53.721 325.706,53.674 325.609,53.627 325.512,53.580 325.415,53.533 325.318,53.487 325.220,53.440 325.123,53.393 325.026,53.346 324.929,53.300 324.832,53.253 324.735,53.207 324.637,53.160 324.540,53.114 324.443,53.067 324.345,53.021 324.248,52.974 324.151,52.928 324.053,52.882 323.956,52.836 323.858,52.790 323.761,52.743 323.663,52.697 323.566,52.651 323.468,52.605 323.370,52.559 323.273,52.513 323.175,52.468 323.077,52.422 322.980,52.376 322.882,52.330 322.784,52.285 322.686,52.239 322.588,52.193 322.490,52.148 322.392,52.102 322.295,52.057 322.197,52.011 322.099,51.966 322.001,51.920 321.902,51.875 321.804,51.830 321.706,51.785 321.608,51.739 321.510,51.694 321.412,51.649 321.313,51.604 321.215,51.559 321.117,51.514 321.019,51.469 320.920,51.424 320.822,51.380 320.724,51.335 320.625,51.290 320.527,51.245 320.428,51.201 320.330,51.156 320.231,51.111 320.133,51.067 320.034,51.022 319.935,50.978 319.837,50.933 319.738,50.889 319.639,50.845 319.540,50.800 319.442,50.756 319.343,50.712 319.244,50.668 319.145,50.624 319.046,50.580 318.947,50.536 318.849,50.492 318.750,50.448 318.651,50.404 318.552,50.360 318.453,50.316 318.353,50.272 318.254,50.229 318.155,50.185 318.056,50.141 317.957,50.098 317.858,50.054 317.758,50.011 317.659,49.967 317.560,49.924 317.461,49.881 317.361,49.837 317.262,49.794 317.162,49.751 317.063,49.707 316.964,49.664 316.864,49.621 316.765,49.578 316.665,49.535 316.566,49.492 316.466,49.449 316.366,49.406 316.267,49.363 316.167,49.321 316.067,49.278 315.968,49.235 315.868,49.192 315.768,49.150 315.668,49.107 315.568,49.065 315.469,49.022 315.369,48.980 315.269,48.937 315.169,48.895 315.069,48.853 314.969,48.810 314.869,48.768 314.769,48.726 314.669,48.684 314.569,48.642 314.469,48.600 314.368,48.558 314.268,48.516 314.168,48.474 314.068,48.432 313.968,48.390 313.867,48.348 313.767,48.306 313.667,48.265 313.566,48.223 313.466,48.181 313.365,48.140 313.265,48.098 313.165,48.057 313.064,48.015 312.964,47.974 312.863,47.932 312.762,47.891 312.662,47.850 312.561,47.809 312.461,47.767 312.360,47.726 312.259,47.685 312.158,47.644 312.058,47.603 311.957,47.562 311.856,47.521 311.755,47.480 311.654,47.439 311.554,47.399 311.453,47.358 311.352,47.317 311.251,47.277 311.150,47.236 311.049,47.195 310.948,47.155 310.847,47.114 310.746,47.074 310.644,47.033 310.543,46.993 310.442,46.953 310.341,46.913 310.240,46.872 310.139,46.832 310.037,46.792 309.936,46.752 309.835,46.712 309.733,46.672 309.632,46.632 309.531,46.592 309.429,46.552 309.328,46.512 309.226,46.473 309.125,46.433 309.023,46.393 308.922,46.353 308.820,46.314 308.719,46.274 308.617,46.235 308.515,46.195 308.414,46.156 308.312,46.117 308.210,46.077 308.109,46.038 308.007,45.999 307.905,45.959 307.803,45.920 307.701,45.881 307.600,45.842 307.498,45.803 307.396,45.764 307.294,45.725 307.192,45.686 307.090,45.647 306.988,45.609 306.886,45.570 306.784,45.531 306.682,45.493 306.580,45.454 306.477,45.415 306.375,45.377 306.273,45.338 306.171,45.300 306.069,45.261 305.966,45.223 305.864,45.185 305.762,45.147 305.660,45.108 305.557,45.070 305.455,45.032 305.352,44.994 305.250,44.956 305.148,44.918 305.045,44.880 304.943,44.842 304.840,44.804 304.738,44.766 304.635,44.729 304.532,44.691 304.430,44.653 304.327,44.616 304.225,44.578 304.122,44.540 304.019,44.503 303.916,44.465 303.814,44.428 303.711,44.391 303.608,44.353 303.505,44.316 303.403,44.279 303.300,44.242 303.197,44.204 303.094,44.167 302.991,44.130 302.888,44.093 302.785,44.056 302.682,44.019 302.579,43.983 302.476,43.946 302.373,43.909 302.270,43.872 302.167,43.835 302.063,43.799 301.960,43.762 301.857,43.726 301.754,43.689 301.651,43.653 301.547,43.616 301.444,43.580 301.341,43.544 301.237,43.507 301.134,43.471 301.031,43.435 300.927,43.399 300.824,43.363 300.720,43.326 300.617,43.290 300.514,43.254 300.410,43.219 300.306,43.183 300.203,43.147 300.099,43.111 299.996,43.075 299.892,43.040 299.788,43.004 299.685,42.968 299.581,42.933 299.477,42.897 299.374,42.862 299.270,42.826 299.166,42.791 299.062,42.756 298.959,42.720 298.855,42.685 298.751,42.650 298.647,42.615 298.543,42.580 298.439,42.545 298.335,42.510 298.231,42.475 298.127,42.440 298.023,42.405 297.919,42.370 297.815,42.335 297.711,42.300 297.607,42.266 297.503,42.231 297.399,42.196 297.294,42.162 297.190,42.127 297.086,42.093 296.982,42.058 296.877,42.024 296.773,41.990 296.669,41.955 296.565,41.921 296.460,41.887 296.356,41.853 296.251,41.819 296.147,41.785 296.043,41.751 295.938,41.717 295.834,41.683 295.729,41.649 295.625,41.615 295.520,41.581 295.416,41.547 295.311,41.514 295.206,41.480 295.102,41.446 294.997,41.413 294.892,41.379 294.788,41.346 294.683,41.312 294.578,41.279 294.474,41.246 294.369,41.212 294.264,41.179 294.159,41.146 294.054,41.113 293.949,41.080 293.845,41.047 293.740,41.014 293.635,40.981 293.530,40.948 293.425,40.915 293.320,40.882 293.215,40.849 293.110,40.817 293.005,40.784 292.900,40.751 292.795,40.719 292.690,40.686 292.584,40.653 292.479,40.621 292.374,40.589 292.269,40.556 292.164,40.524 292.059,40.492 291.953,40.459 291.848,40.427 291.743,40.395 291.637,40.363 291.532,40.331 291.427,40.299 291.321,40.267 291.216,40.235 291.111,40.203 291.005,40.171 290.900,40.140 290.794,40.108 290.689,40.076 290.583,40.045 290.478,40.013 290.372,39.981 290.267,39.950 290.161,39.918 290.055,39.887 289.950,39.856 289.844,39.824 289.738,39.793 289.633,39.762 289.527,39.731 289.421,39.700 289.316,39.668 289.210,39.637 289.104,39.606 288.998,39.576 288.892,39.545 288.787,39.514 288.681,39.483 288.575,39.452 288.469,39.421 288.363,39.391 288.257,39.360 288.151,39.330 288.045,39.299 287.939,39.269 287.833,39.238 287.727,39.208 287.621,39.177 287.515,39.147 287.409,39.117 287.303,39.087 287.197,39.057 287.091,39.026 286.984,38.996 286.878,38.966 286.772,38.936 286.666,38.906 286.559,38.877 286.453,38.847 286.347,38.817 286.241,38.787 286.134,38.758 286.028,38.728 285.922,38.698 285.815,38.669 285.709,38.639 285.602,38.610 285.496,38.580 285.390,38.551 285.283,38.522 285.177,38.492 285.070,38.463 284.964,38.434 284.857,38.405 284.751,38.376 284.644,38.347 284.537,38.318 284.431,38.289 284.324,38.260 284.217,38.231 284.111,38.202 284.004,38.173 283.897,38.145 283.791,38.116 283.684,38.087 283.577,38.059 283.470,38.030 283.364,38.002 283.257,37.973 283.150,37.945 283.043,37.917 282.936,37.888 282.829,37.860 282.722,37.832 282.616,37.804 282.509,37.776 282.402,37.748 282.295,37.720 282.188,37.692 282.081,37.664 281.974,37.636 281.867,37.608 281.760,37.580 281.653,37.552 281.545,37.525 281.438,37.497 281.331,37.470 281.224,37.442 281.117,37.414 281.010,37.387 280.903,37.360 280.795,37.332 280.688,37.305 280.581,37.278 280.474,37.250 280.366,37.223 280.259,37.196 280.152,37.169 280.044,37.142 279.937,37.115 279.830,37.088 279.722,37.061 279.615,37.034 279.507,37.008 279.400,36.981 279.292,36.954 279.185,36.927 279.078,36.901 278.970,36.874 278.863,36.848 278.755,36.821 278.647,36.795 278.540,36.768 278.432,36.742 278.325,36.716 278.217,36.690 278.109,36.663 278.002,36.637 277.894,36.611 277.786,36.585 277.679,36.559 277.571,36.533 277.463,36.507 277.356,36.481 277.248,36.456 277.140,36.430 277.032,36.404 276.924,36.378 276.817,36.353 276.709,36.327 276.601,36.302 276.493,36.276 276.385,36.251 276.277,36.225 276.169,36.200 276.061,36.175 275.953,36.150 275.845,36.124 275.737,36.099 275.629,36.074 275.521,36.049 275.413,36.024 275.305,35.999 275.197,35.974 275.089,35.949 274.981,35.924 274.873,35.900 274.765,35.875 274.657,35.850 274.548,35.826 274.440,35.801 274.332,35.776 274.224,35.752 274.116,35.728 274.007,35.703 273.899,35.679 273.791,35.654 273.683,35.630 273.574,35.606 218.203,207.812 369.480,81.749 "/>
</g>
<g id="ID000005" clip-path="url(#ID000001)" >
      <polygon fill="#69adde" fill-opacity="0.65" stroke="#4c4c4c" stroke-width="0.1pt" stroke-opacity="1.00" stroke-dasharray="none" points="369.480,333.876 369.559,333.810 369.638,333.744 369.717,333.678 369.797,333.612 369.876,333.546 369.955,333.479 370.034,333.413 370.113,333.347 370.192,333.280 370.271,333.214 370.349,333.147 370.428,333.081 370.507,333.015 370.586,332.948 370.664,332.881 370.743,332.815 370.822,332.748 370.900,332.681 370.979,332.615 371.057,332.548 371.136,332.481 371.214,332.414 371.292,332.348 371.371,332.281 371.449,332.214 371.527,332.147 371.605,332.080 371.683,332.013 371.762,331.946 371.840,331.879 371.918,331.812 371.996,331.744 372.074,331.677 372.151,331.610 372.229,331.543 372.307,331.475 372.385,331.408 372.463,331.341 372.540,331.273 372.618,331.206 372.695,331.138 372.773,331.071 372.850,331.003 372.928,330.936 373.005,330.868 373.083,330.801 373.160,330.733 373.237,330.665 373.315,330.598 373.392,330.530 373.469,330.462 373.546,330.394 373.623,330.326 373.700,330.258 373.777,330.190 373.854,330.123 373.931,330.055 374.008,329.986 374.085,329.918 374.161,329.850 374.238,329.782 374.315,329.714 374.392,329.646 374.468,329.578 374.545,329.509 374.621,329.441 374.698,329.373 374.774,329.304 374.851,329.236 374.927,329.167 375.003,329.099 375.079,329.031 375.156,328.962 375.232,328.893 375.308,328.825 375.384,328.756 375.460,328.687 375.536,328.619 375.612,328.550 375.688,328.481 375.764,328.412 375.840,328.344 375.915,328.275 375.991,328.206 376.067,328.137 376.143,328.068 376.218,327.999 376.294,327.930 376.369,327.861 376.445,327.792 376.520,327.723 376.596,327.653 376.671,327.584 376.746,327.515 376.822,327.446 376.897,327.377 376.972,327.307 377.047,327.238 377.122,327.168 377.197,327.099 377.272,327.030 377.347,326.960 377.422,326.891 377.497,326.821 377.572,326.751 377.647,326.682 377.721,326.612 377.796,326.542 377.871,326.473 377.945,326.403 378.020,326.333 378.094,326.263 378.169,326.193 378.243,326.124 378.318,326.054 378.392,325.984 378.466,325.914 378.541,325.844 378.615,325.774 378.689,325.704 378.763,325.633 378.837,325.563 378.911,325.493 378.985,325.423 379.059,325.353 379.133,325.282 379.207,325.212 379.281,325.142 379.354,325.071 379.428,325.001 379.502,324.931 379.575,324.860 379.649,324.790 379.723,324.719 379.796,324.649 379.870,324.578 379.943,324.507 380.016,324.437 380.090,324.366 380.163,324.295 380.236,324.224 380.309,324.154 380.383,324.083 380.456,324.012 380.529,323.941 380.602,323.870 380.675,323.799 380.748,323.728 380.821,323.657 380.893,323.586 380.966,323.515 381.039,323.444 381.112,323.373 381.184,323.302 381.257,323.231 381.329,323.159 381.402,323.088 381.474,323.017 381.547,322.945 381.619,322.874 381.692,322.803 381.764,322.731 381.836,322.660 381.908,322.588 381.981,322.517 382.053,322.445 382.125,322.374 382.197,322.302 382.269,322.230 382.341,322.159 382.413,322.087 382.484,322.015 382.556,321.944 382.628,321.872 382.700,321.800 382.771,321.728 382.843,321.656 382.915,321.584 382.986,321.512 383.058,321.440 383.129,321.368 383.201,321.296 383.272,321.224 383.343,321.152 383.414,321.080 383.486,321.008 383.557,320.935 383.628,320.863 383.699,320.791 383.770,320.719 383.841,320.646 383.912,320.574 383.983,320.502 384.054,320.429 384.125,320.357 384.195,320.284 384.266,320.212 384.337,320.139 384.407,320.067 384.478,319.994 384.548,319.921 384.619,319.849 384.689,319.776 384.760,319.703 384.830,319.630 384.900,319.558 384.971,319.485 385.041,319.412 385.111,319.339 385.181,319.266 385.251,319.193 385.321,319.120 385.391,319.047 385.461,318.974 385.531,318.901 385.601,318.828 385.671,318.755 385.740,318.682 385.810,318.609 385.880,318.535 385.949,318.462 386.019,318.389 386.089,318.316 386.158,318.242 386.227,318.169 386.297,318.095 386.366,318.022 386.436,317.949 386.505,317.875 386.574,317.802 386.643,317.728 386.712,317.654 386.781,317.581 386.850,317.507 386.919,317.433 386.988,317.360 387.057,317.286 387.126,317.212 387.195,317.138 387.263,317.065 387.332,316.991 387.401,316.917 387.469,316.843 387.538,316.769 387.606,316.695 387.675,316.621 387.743,316.547 387.812,316.473 387.880,316.399 387.948,316.325 388.016,316.251 388.085,316.176 388.153,316.102 388.221,316.028 388.289,315.954 388.357,315.879 388.425,315.805 388.493,315.731 388.561,315.656 388.628,315.582 388.696,315.507 388.764,315.433 388.832,315.358 388.899,315.284 388.967,315.209 389.034,315.135 389.102,315.060 389.169,314.985 389.237,314.911 389.304,314.836 389.371,314.761 389.438,314.686 389.506,314.612 389.573,314.537 389.640,314.462 389.707,314.387 389.774,314.312 389.841,314.237 389.908,314.162 389.975,314.087 390.041,314.012 390.108,313.937 390.175,313.862 390.242,313.787 390.308,313.712 390.375,313.637 390.441,313.561 390.508,313.486 390.574,313.411 390.641,313.336 390.707,313.260 390.773,313.185 390.840,313.109 390.906,313.034 390.972,312.959 391.038,312.883 391.104,312.808 391.170,312.732 391.236,312.656 391.302,312.581 391.368,312.505 391.434,312.430 391.499,312.354 391.565,312.278 391.631,312.203 391.696,312.127 391.762,312.051 391.828,311.975 391.893,311.899 391.959,311.823 392.024,311.748 392.089,311.672 392.155,311.596 392.220,311.520 392.285,311.444 392.350,311.368 392.415,311.291 392.480,311.215 392.545,311.139 392.610,311.063 392.675,310.987 392.740,310.911 392.805,310.834 392.870,310.758 392.934,310.682 392.999,310.606 393.064,310.529 393.128,310.453 393.193,310.376 393.257,310.300 393.322,310.223 393.386,310.147 393.450,310.070 393.515,309.994 393.579,309.917 393.643,309.841 393.707,309.764 393.771,309.687 393.835,309.611 393.899,309.534 393.963,309.457 394.027,309.380 394.091,309.304 394.155,309.227 394.219,309.150 394.282,309.073 394.346,308.996 394.410,308.919 394.473,308.842 394.537,308.765 394.600,308.688 394.664,308.611 394.727,308.534 394.790,308.457 394.854,308.380 394.917,308.303 394.980,308.225 395.043,308.148 395.106,308.071 395.169,307.994 395.232,307.916 395.295,307.839 395.358,307.762 395.421,307.684 395.484,307.607 395.547,307.529 395.609,307.452 395.672,307.374 395.734,307.297 395.797,307.219 395.860,307.142 395.922,307.064 395.984,306.986 396.047,306.909 396.109,306.831 396.171,306.753 396.233,306.676 396.296,306.598 396.358,306.520 396.420,306.442 396.482,306.364 396.544,306.287 396.606,306.209 396.668,306.131 396.729,306.053 396.791,305.975 396.853,305.897 396.914,305.819 396.976,305.741 397.038,305.663 397.099,305.584 397.161,305.506 397.222,305.428 397.283,305.350 397.345,305.272 397.406,305.193 397.467,305.115 397.528,305.037 397.590,304.958 397.651,304.880 397.712,304.802 397.773,304.723 397.834,304.645 397.894,304.566 397.955,304.488 398.016,304.409 398.077,304.331 398.137,304.252 398.198,304.174 398.259,304.095 398.319,304.016 398.380,303.938 398.440,303.859 398.501,303.780 398.561,303.701 398.621,303.623 398.681,303.544 398.742,303.465 398.802,303.386 398.862,303.307 398.922,303.228 398.982,303.149 399.042,303.070 399.102,302.991 399.161,302.912 399.221,302.833 399.281,302.754 399.341,302.675 399.400,302.596 399.460,302.517 399.519,302.438 399.579,302.358 399.638,302.279 399.698,302.200 399.757,302.121 399.816,302.041 399.876,301.962 399.935,301.883 399.994,301.803 400.053,301.724 400.112,301.644 400.171,301.565 400.230,301.485 400.289,301.406 400.348,301.326 400.407,301.247 400.465,301.167 400.524,301.088 400.583,301.008 400.641,300.928 400.700,300.849 400.758,300.769 400.817,300.689 400.875,300.609 400.933,300.530 400.992,300.450 401.050,300.370 401.108,300.290 401.166,300.210 401.224,300.130 401.282,300.050 401.340,299.970 401.398,299.890 401.456,299.810 401.514,299.730 401.572,299.650 401.630,299.570 401.687,299.490 401.745,299.410 401.802,299.330 401.860,299.249 401.917,299.169 401.975,299.089 402.032,299.009 402.090,298.928 402.147,298.848 402.204,298.768 402.261,298.687 402.318,298.607 402.376,298.526 402.433,298.446 402.490,298.365 402.546,298.285 402.603,298.204 402.660,298.124 402.717,298.043 402.774,297.963 402.830,297.882 402.887,297.801 402.944,297.721 403.000,297.640 403.057,297.559 403.113,297.479 403.169,297.398 403.226,297.317 403.282,297.236 403.338,297.155 403.394,297.074 403.450,296.994 403.506,296.913 403.562,296.832 403.618,296.751 403.674,296.670 403.730,296.589 403.786,296.508 403.842,296.427 403.897,296.346 403.953,296.264 404.009,296.183 404.064,296.102 404.120,296.021 404.175,295.940 404.231,295.858 404.286,295.777 404.341,295.696 404.397,295.615 404.452,295.533 404.507,295.452 404.562,295.371 404.617,295.289 404.672,295.208 404.727,295.126 404.782,295.045 404.837,294.963 404.891,294.882 404.946,294.800 405.001,294.719 405.056,294.637 405.110,294.555 405.165,294.474 405.219,294.392 405.274,294.310 405.328,294.229 405.382,294.147 405.437,294.065 405.491,293.983 405.545,293.902 405.599,293.820 405.653,293.738 405.707,293.656 405.761,293.574 405.815,293.492 405.869,293.410 405.923,293.328 405.976,293.246 406.030,293.164 406.084,293.082 406.137,293.000 406.191,292.918 406.244,292.836 406.298,292.754 406.351,292.671 406.405,292.589 406.458,292.507 406.511,292.425 406.564,292.343 406.618,292.260 406.671,292.178 406.724,292.096 406.777,292.013 406.830,291.931 406.882,291.849 406.935,291.766 406.988,291.684 407.041,291.601 407.093,291.519 407.146,291.436 407.199,291.354 407.251,291.271 407.304,291.189 407.356,291.106 407.408,291.023 407.461,290.941 407.513,290.858 407.565,290.775 407.617,290.693 407.669,290.610 407.721,290.527 407.773,290.444 407.825,290.361 407.877,290.279 407.929,290.196 407.981,290.113 408.033,290.030 408.084,289.947 408.136,289.864 408.188,289.781 408.239,289.698 408.291,289.615 408.342,289.532 408.393,289.449 408.445,289.366 408.496,289.283 408.547,289.200 408.598,289.117 408.649,289.033 408.701,288.950 408.752,288.867 408.802,288.784 408.853,288.701 408.904,288.617 408.955,288.534 409.006,288.451 409.056,288.367 409.107,288.284 409.158,288.201 409.208,288.117 409.259,288.034 409.309,287.950 409.359,287.867 409.410,287.783 409.460,287.700 409.510,287.616 409.560,287.533 409.611,287.449 409.661,287.365 409.711,287.282 409.761,287.198 409.811,287.114 409.860,287.031 409.910,286.947 409.960,286.863 410.010,286.779 410.059,286.696 410.109,286.612 410.158,286.528 410.208,286.444 410.257,286.360 410.307,286.276 410.356,286.193 410.405,286.109 410.454,286.025 410.504,285.941 410.553,285.857 410.602,285.773 410.651,285.689 410.700,285.605 410.749,285.520 410.797,285.436 410.846,285.352 410.895,285.268 410.944,285.184 410.992,285.100 411.041,285.015 411.089,284.931 411.138,284.847 411.186,284.763 411.235,284.678 411.283,284.594 411.331,284.510 411.380,284.425 411.428,284.341 411.476,284.257 411.524,284.172 411.572,284.088 411.620,284.003 411.668,283.919 411.716,283.834 411.763,283.750 411.811,283.665 411.859,283.581 411.906,283.496 411.954,283.411 412.001,283.327 412.049,283.242 412.096,283.157 412.144,283.073 412.191,282.988 412.238,282.903 412.285,282.819 412.333,282.734 412.380,282.649 412.427,282.564 412.474,282.479 412.521,282.394 412.568,282.310 412.614,282.225 412.661,282.140 412.708,282.055 412.755,281.970 412.801,281.885 412.848,281.800 412.894,281.715 412.941,281.630 412.987,281.545 413.033,281.460 413.080,281.374 413.126,281.289 413.172,281.204 413.218,281.119 413.264,281.034 413.310,280.949 413.356,280.863 413.402,280.778 413.448,280.693 413.494,280.608 413.540,280.522 413.585,280.437 413.631,280.352 413.677,280.266 413.722,280.181 413.768,280.095 413.813,280.010 413.859,279.925 413.904,279.839 413.949,279.754 413.994,279.668 414.040,279.583 414.085,279.497 414.130,279.411 414.175,279.326 414.220,279.240 414.265,279.155 414.309,279.069 414.354,278.983 414.399,278.898 414.444,278.812 414.488,278.726 414.533,278.641 414.577,278.555 414.622,278.469 414.666,278.383 414.711,278.297 414.755,278.212 414.799,278.126 414.843,278.040 414.887,277.954 414.932,277.868 414.976,277.782 415.020,277.696 415.063,277.610 415.107,277.524 415.151,277.438 415.195,277.352 415.239,277.266 415.282,277.180 415.326,277.094 415.369,277.008 415.413,276.922 415.456,276.836 415.500,276.749 415.543,276.663 415.586,276.577 415.630,276.491 415.673,276.405 415.716,276.318 415.759,276.232 415.802,276.146 415.845,276.059 415.888,275.973 415.931,275.887 415.973,275.800 416.016,275.714 416.059,275.628 416.101,275.541 416.144,275.455 416.187,275.368 416.229,275.282 416.271,275.195 416.314,275.109 416.356,275.022 416.398,274.936 416.440,274.849 416.483,274.762 416.525,274.676 416.567,274.589 416.609,274.503 416.651,274.416 416.692,274.329 416.734,274.242 416.776,274.156 416.818,274.069 416.859,273.982 416.901,273.895 416.943,273.809 416.984,273.722 417.025,273.635 417.067,273.548 417.108,273.461 417.149,273.374 417.191,273.288 417.232,273.201 417.273,273.114 417.314,273.027 417.355,272.940 417.396,272.853 417.437,272.766 417.477,272.679 417.518,272.592 417.559,272.505 417.600,272.418 417.640,272.330 417.681,272.243 417.721,272.156 417.762,272.069 417.802,271.982 417.842,271.895 417.883,271.807 417.923,271.720 417.963,271.633 418.003,271.546 418.043,271.458 418.083,271.371 418.123,271.284 418.163,271.197 418.203,271.109 418.243,271.022 418.282,270.934 418.322,270.847 418.362,270.760 418.401,270.672 418.441,270.585 418.480,270.497 418.520,270.410 418.559,270.322 418.598,270.235 418.638,270.147 418.677,270.060 418.716,269.972 418.755,269.885 418.794,269.797 418.833,269.709 418.872,269.622 418.911,269.534 418.949,269.446 418.988,269.359 419.027,269.271 419.065,269.183 419.104,269.095 419.143,269.008 419.181,268.920 419.219,268.832 419.258,268.744 419.296,268.657 419.334,268.569 419.373,268.481 419.411,268.393 419.449,268.305 419.487,268.217 419.525,268.129 419.563,268.041 419.600,267.953 419.638,267.865 419.676,267.777 419.714,267.689 419.751,267.601 419.789,267.513 419.826,267.425 419.864,267.337 419.901,267.249 419.939,267.161 419.976,267.073 420.013,266.985 420.050,266.897 420.088,266.808 420.125,266.720 420.162,266.632 420.199,266.544 420.235,266.456 420.272,266.367 420.309,266.279 420.346,266.191 420.383,266.103 420.419,266.014 420.456,265.926 420.492,265.838 420.529,265.749 420.565,265.661 420.602,265.572 420.638,265.484 420.674,265.396 420.710,265.307 420.746,265.219 420.782,265.130 420.819,265.042 420.854,264.953 420.890,264.865 420.926,264.776 420.962,264.688 420.998,264.599 421.033,264.510 421.069,264.422 421.105,264.333 421.140,264.245 421.176,264.156 421.211,264.067 421.246,263.979 421.282,263.890 421.317,263.801 421.352,263.713 421.387,263.624 421.422,263.535 421.457,263.446 421.492,263.357 421.527,263.269 421.562,263.180 421.597,263.091 421.632,263.002 421.666,262.913 421.701,262.824 421.736,262.736 421.770,262.647 421.804,262.558 421.839,262.469 421.873,262.380 421.908,262.291 421.942,262.202 421.976,262.113 422.010,262.024 422.044,261.935 422.078,261.846 422.112,261.757 422.146,261.668 422.180,261.579 422.214,261.490 422.247,261.400 422.281,261.311 422.315,261.222 422.348,261.133 422.382,261.044 422.415,260.955 422.449,260.865 422.482,260.776 422.515,260.687 422.548,260.598 422.582,260.508 422.615,260.419 422.648,260.330 422.681,260.241 422.714,260.151 422.747,260.062 422.779,259.973 422.812,259.883 422.845,259.794 422.878,259.705 422.910,259.615 422.943,259.526 422.975,259.436 423.008,259.347 423.040,259.257 423.072,259.168 423.105,259.078 423.137,258.989 423.169,258.899 423.201,258.810 423.233,258.720 423.265,258.631 423.297,258.541 423.329,258.452 423.361,258.362 423.393,258.272 423.424,258.183 423.456,258.093 423.488,258.003 423.519,257.914 423.551,257.824 423.582,257.734 423.613,257.645 423.645,257.555 423.676,257.465 423.707,257.375 423.738,257.286 423.769,257.196 423.800,257.106 423.831,257.016 423.862,256.927 423.893,256.837 423.924,256.747 423.955,256.657 423.985,256.567 424.016,256.477 424.047,256.387 424.077,256.297 424.108,256.207 424.138,256.118 424.168,256.028 424.199,255.938 424.229,255.848 424.259,255.758 424.289,255.668 424.319,255.578 424.349,255.488 424.379,255.398 424.409,255.308 424.439,255.217 424.469,255.127 424.499,255.037 424.528,254.947 424.558,254.857 424.587,254.767 424.617,254.677 424.646,254.587 424.676,254.496 424.705,254.406 424.734,254.316 424.764,254.226 424.793,254.136 424.822,254.045 424.851,253.955 218.203,207.812 369.480,333.876 "/>
</g>
<g id="ID000006" clip-path="url(#ID000001)" >
      <polyline fill="none" stroke="#ffffff" stroke-width="1.0pt" stroke-dasharray="none" points="111.234,207.812 432.141,207.812 "/>
<g>
</g>
</g>
<g id="ID000007" clip-path="url(#ID000001)" >
      <polygon fill="#999999" fill-opacity="0.65" stroke="#999999" stroke-width="0.1pt" stroke-opacity="1.00" stroke-dasharray="none" points="337.057,207.812 337.057,207.718 337.057,207.624 337.057,207.530 337.056,207.436 337.056,207.342 337.055,207.247 337.055,207.153 337.054,207.059 337.053,206.965 337.052,206.871 337.051,206.776 337.050,206.682 337.048,206.588 337.047,206.494 337.045,206.400 337.044,206.306 337.042,206.211 337.040,206.117 337.038,206.023 337.036,205.929 337.034,205.835 337.031,205.741 337.029,205.646 337.026,205.552 337.024,205.458 337.021,205.364 337.018,205.270 337.015,205.176 337.012,205.081 337.009,204.987 337.006,204.893 337.002,204.799 336.999,204.705 336.995,204.611 336.991,204.517 336.988,204.422 336.984,204.328 336.980,204.234 336.976,204.140 336.971,204.046 336.967,203.952 336.963,203.858 336.958,203.764 336.953,203.669 336.948,203.575 336.944,203.481 336.939,203.387 336.933,203.293 336.928,203.199 336.923,203.105 336.918,203.011 336.912,202.917 336.906,202.823 336.901,202.729 336.895,202.635 336.889,202.541 336.883,202.446 336.877,202.352 336.870,202.258 336.864,202.164 336.857,202.070 336.851,201.976 336.844,201.882 336.837,201.788 336.830,201.694 336.823,201.600 336.816,201.506 336.809,201.412 336.802,201.318 336.794,201.224 336.786,201.130 336.779,201.036 336.771,200.942 336.763,200.848 336.755,200.754 336.747,200.661 336.739,200.567 336.730,200.473 336.722,200.379 336.714,200.285 336.705,200.191 336.696,200.097 336.687,200.003 336.678,199.909 336.669,199.815 336.660,199.721 336.651,199.628 336.641,199.534 336.632,199.440 336.622,199.346 336.613,199.252 336.603,199.158 336.593,199.065 336.583,198.971 336.573,198.877 336.562,198.783 336.552,198.689 336.542,198.596 336.531,198.502 336.520,198.408 336.510,198.314 336.499,198.220 336.488,198.127 336.477,198.033 336.465,197.939 336.454,197.846 336.443,197.752 336.431,197.658 336.419,197.564 336.408,197.471 336.396,197.377 336.384,197.283 336.372,197.190 336.360,197.096 336.347,197.003 336.335,196.909 336.322,196.815 336.310,196.722 336.297,196.628 336.284,196.535 336.271,196.441 336.258,196.347 336.245,196.254 336.232,196.160 336.219,196.067 336.205,195.973 336.192,195.880 336.178,195.786 336.164,195.693 336.150,195.599 336.136,195.506 336.122,195.412 336.108,195.319 336.094,195.226 336.079,195.132 336.065,195.039 336.050,194.945 336.035,194.852 336.020,194.759 336.006,194.665 335.990,194.572 335.975,194.479 335.960,194.385 335.945,194.292 335.929,194.199 335.914,194.105 335.898,194.012 335.882,193.919 335.866,193.826 335.850,193.732 335.834,193.639 335.818,193.546 335.802,193.453 335.785,193.359 335.769,193.266 335.752,193.173 335.735,193.080 335.718,192.987 335.701,192.894 335.684,192.801 335.667,192.708 335.650,192.614 335.632,192.521 335.615,192.428 335.597,192.335 335.579,192.242 335.562,192.149 335.544,192.056 335.526,191.963 335.508,191.870 335.489,191.777 335.471,191.684 335.453,191.592 335.434,191.499 335.415,191.406 335.397,191.313 335.378,191.220 335.359,191.127 335.340,191.034 335.320,190.941 335.301,190.849 335.282,190.756 335.262,190.663 335.242,190.570 335.223,190.478 335.203,190.385 335.183,190.292 335.163,190.200 335.143,190.107 335.123,190.014 335.102,189.922 335.082,189.829 335.061,189.736 335.040,189.644 335.020,189.551 334.999,189.459 334.978,189.366 334.957,189.273 334.935,189.181 334.914,189.088 334.893,188.996 334.871,188.904 334.850,188.811 334.828,188.719 334.806,188.626 334.784,188.534 334.762,188.441 334.740,188.349 334.718,188.257 334.695,188.164 334.673,188.072 334.650,187.980 334.627,187.888 334.605,187.795 334.582,187.703 334.559,187.611 334.536,187.519 334.512,187.426 334.489,187.334 334.466,187.242 334.442,187.150 334.419,187.058 334.395,186.966 334.371,186.874 334.347,186.782 334.323,186.690 334.299,186.598 334.275,186.506 334.250,186.414 334.226,186.322 334.201,186.230 334.176,186.138 334.152,186.046 334.127,185.954 334.102,185.862 334.077,185.770 334.052,185.679 334.026,185.587 334.001,185.495 333.975,185.403 333.950,185.312 333.924,185.220 333.898,185.128 333.872,185.037 333.846,184.945 333.820,184.853 333.794,184.762 333.767,184.670 333.741,184.578 333.714,184.487 333.688,184.395 333.661,184.304 333.634,184.212 333.607,184.121 333.580,184.029 333.553,183.938 333.525,183.847 333.498,183.755 333.471,183.664 333.443,183.573 333.415,183.481 333.387,183.390 333.359,183.299 333.331,183.207 333.303,183.116 333.275,183.025 333.247,182.934 333.218,182.843 333.190,182.752 333.161,182.660 333.132,182.569 333.103,182.478 333.075,182.387 333.045,182.296 333.016,182.205 332.987,182.114 332.958,182.023 332.928,181.932 332.899,181.842 332.869,181.751 332.839,181.660 332.809,181.569 332.779,181.478 332.749,181.387 332.719,181.297 332.689,181.206 332.658,181.115 332.628,181.024 332.597,180.934 332.566,180.843 332.535,180.753 332.505,180.662 332.474,180.571 332.442,180.481 332.411,180.390 332.380,180.300 332.348,180.209 332.317,180.119 332.285,180.028 332.253,179.938 332.222,179.848 332.190,179.757 332.157,179.667 332.125,179.577 332.093,179.487 332.061,179.396 332.028,179.306 331.996,179.216 331.963,179.126 331.930,179.036 331.897,178.945 331.864,178.855 331.831,178.765 331.798,178.675 331.765,178.585 331.731,178.495 331.698,178.405 331.664,178.315 331.630,178.226 331.597,178.136 331.563,178.046 331.529,177.956 331.495,177.866 331.460,177.776 331.426,177.687 331.392,177.597 331.357,177.507 331.322,177.418 331.288,177.328 331.253,177.238 331.218,177.149 331.183,177.059 331.148,176.970 331.112,176.880 331.077,176.791 331.042,176.701 331.006,176.612 330.970,176.523 330.935,176.433 330.899,176.344 330.863,176.255 330.827,176.165 330.791,176.076 330.754,175.987 330.718,175.898 330.682,175.809 330.645,175.719 330.608,175.630 330.572,175.541 330.535,175.452 330.498,175.363 330.461,175.274 330.423,175.185 330.386,175.096 330.349,175.008 330.311,174.919 330.274,174.830 330.236,174.741 330.198,174.652 330.160,174.564 330.122,174.475 330.084,174.386 330.046,174.298 330.008,174.209 329.969,174.120 329.931,174.032 329.892,173.943 329.854,173.855 329.815,173.766 329.776,173.678 329.737,173.589 329.698,173.501 329.659,173.413 329.619,173.324 329.580,173.236 329.540,173.148 329.501,173.060 329.461,172.972 329.421,172.883 329.381,172.795 329.341,172.707 329.301,172.619 329.261,172.531 329.221,172.443 329.180,172.355 329.140,172.267 329.099,172.179 329.058,172.091 329.018,172.004 328.977,171.916 328.936,171.828 328.895,171.740 328.853,171.653 328.812,171.565 328.771,171.477 328.729,171.390 328.687,171.302 328.646,171.215 328.604,171.127 328.562,171.040 328.520,170.952 328.478,170.865 328.436,170.777 328.393,170.690 328.351,170.603 328.308,170.516 328.266,170.428 328.223,170.341 328.180,170.254 328.137,170.167 328.094,170.080 328.051,169.993 328.008,169.906 327.965,169.819 327.921,169.732 327.878,169.645 327.834,169.558 327.791,169.471 327.747,169.384 327.703,169.297 327.659,169.211 327.615,169.124 327.571,169.037 327.526,168.950 327.482,168.864 327.437,168.777 327.393,168.691 327.348,168.604 327.303,168.518 327.258,168.431 327.213,168.345 327.168,168.259 327.123,168.172 327.078,168.086 327.032,168.000 326.987,167.913 326.941,167.827 326.896,167.741 326.850,167.655 326.804,167.569 326.758,167.483 326.712,167.397 326.666,167.311 326.620,167.225 326.573,167.139 326.527,167.053 326.480,166.967 326.434,166.882 326.387,166.796 326.340,166.710 326.293,166.624 326.246,166.539 326.199,166.453 326.152,166.368 326.104,166.282 326.057,166.197 326.009,166.111 325.962,166.026 325.914,165.940 325.866,165.855 325.818,165.770 325.770,165.684 325.722,165.599 325.674,165.514 325.625,165.429 325.577,165.344 325.528,165.259 325.480,165.174 325.431,165.089 325.382,165.004 325.333,164.919 325.284,164.834 325.235,164.749 325.186,164.664 325.137,164.580 325.088,164.495 325.038,164.410 324.988,164.326 324.939,164.241 324.889,164.156 324.839,164.072 324.789,163.987 324.739,163.903 324.689,163.819 324.639,163.734 324.588,163.650 324.538,163.566 324.487,163.481 324.437,163.397 324.386,163.313 324.335,163.229 324.284,163.145 324.233,163.061 324.182,162.977 324.131,162.893 324.080,162.809 324.028,162.725 323.977,162.641 323.925,162.557 323.873,162.473 323.822,162.390 323.770,162.306 323.718,162.222 323.666,162.139 323.614,162.055 323.561,161.972 323.509,161.888 323.456,161.805 323.404,161.721 323.351,161.638 323.299,161.555 323.246,161.472 323.193,161.388 323.140,161.305 323.087,161.222 323.033,161.139 322.980,161.056 322.927,160.973 322.873,160.890 322.820,160.807 322.766,160.724 322.712,160.641 322.658,160.558 322.604,160.476 322.550,160.393 322.496,160.310 322.442,160.228 322.387,160.145 322.333,160.063 322.278,159.980 322.224,159.898 322.169,159.815 322.114,159.733 322.059,159.651 322.004,159.568 321.949,159.486 321.894,159.404 321.839,159.322 321.783,159.240 321.728,159.158 321.672,159.075 321.617,158.994 321.561,158.912 321.505,158.830 321.449,158.748 321.393,158.666 321.337,158.584 321.281,158.503 321.224,158.421 321.168,158.339 321.112,158.258 321.055,158.176 320.998,158.095 320.941,158.013 320.885,157.932 320.828,157.851 320.771,157.769 320.713,157.688 320.656,157.607 320.599,157.526 320.541,157.444 320.484,157.363 320.426,157.282 320.369,157.201 320.311,157.120 320.253,157.040 320.195,156.959 320.137,156.878 320.079,156.797 320.020,156.716 319.962,156.636 319.904,156.555 319.845,156.475 319.786,156.394 319.728,156.314 319.669,156.233 319.610,156.153 319.551,156.072 319.492,155.992 319.433,155.912 319.373,155.832 319.314,155.752 319.255,155.671 319.195,155.591 319.135,155.511 319.076,155.431 319.016,155.352 318.956,155.272 318.896,155.192 318.836,155.112 318.776,155.032 318.715,154.953 318.655,154.873 318.595,154.793 318.534,154.714 318.473,154.634 318.413,154.555 318.352,154.476 318.291,154.396 318.230,154.317 318.169,154.238 318.108,154.159 318.046,154.079 317.985,154.000 317.924,153.921 317.862,153.842 317.800,153.763 317.739,153.684 317.677,153.606 317.615,153.527 317.553,153.448 317.491,153.369 317.429,153.291 317.366,153.212 317.304,153.133 317.242,153.055 317.179,152.977 317.117,152.898 317.054,152.820 316.991,152.741 316.928,152.663 316.865,152.585 316.802,152.507 316.739,152.429 316.676,152.351 316.612,152.273 316.549,152.195 316.485,152.117 316.422,152.039 316.358,151.961 316.294,151.883 316.230,151.806 316.167,151.728 316.102,151.650 316.038,151.573 315.974,151.495 315.910,151.418 315.845,151.340 315.781,151.263 315.716,151.186 315.652,151.109 315.587,151.031 315.522,150.954 315.457,150.877 315.392,150.800 315.327,150.723 315.262,150.646 315.197,150.569 315.131,150.492 315.066,150.416 315.000,150.339 314.935,150.262 314.869,150.186 314.803,150.109 314.737,150.032 314.671,149.956 314.605,149.880 314.539,149.803 314.473,149.727 314.406,149.651 314.340,149.574 314.273,149.498 314.207,149.422 314.140,149.346 314.073,149.270 314.007,149.194 313.940,149.118 313.873,149.042 313.806,148.967 313.738,148.891 313.671,148.815 313.604,148.740 313.536,148.664 313.469,148.588 313.401,148.513 313.333,148.438 313.266,148.362 313.198,148.287 313.130,148.212 313.062,148.136 312.994,148.061 312.925,147.986 312.857,147.911 312.789,147.836 312.720,147.761 312.652,147.686 312.583,147.612 312.514,147.537 312.445,147.462 312.376,147.387 312.307,147.313 312.238,147.238 312.169,147.164 312.100,147.089 312.031,147.015 311.961,146.941 311.892,146.866 311.822,146.792 311.752,146.718 311.683,146.644 311.613,146.570 311.543,146.496 311.473,146.422 311.403,146.348 311.333,146.274 311.262,146.200 311.192,146.127 311.122,146.053 311.051,145.979 310.980,145.906 310.910,145.832 310.839,145.759 310.768,145.686 310.697,145.612 310.626,145.539 310.555,145.466 310.484,145.393 310.413,145.320 310.341,145.246 310.270,145.174 310.198,145.101 310.127,145.028 310.055,144.955 309.983,144.882 309.911,144.809 309.839,144.737 309.767,144.664 309.695,144.592 309.623,144.519 309.551,144.447 309.478,144.374 309.406,144.302 309.334,144.230 309.261,144.158 309.188,144.086 309.115,144.013 309.043,143.941 308.970,143.869 308.897,143.798 308.824,143.726 308.750,143.654 308.677,143.582 308.604,143.511 308.530,143.439 308.457,143.367 308.383,143.296 308.310,143.224 308.236,143.153 308.162,143.082 308.088,143.011 308.014,142.939 307.940,142.868 307.866,142.797 307.792,142.726 307.717,142.655 307.643,142.584 307.569,142.513 307.494,142.443 307.419,142.372 307.345,142.301 307.270,142.231 307.195,142.160 307.120,142.089 307.045,142.019 306.970,141.949 306.895,141.878 306.819,141.808 306.744,141.738 306.669,141.668 306.593,141.598 306.517,141.528 306.442,141.458 306.366,141.388 306.290,141.318 306.214,141.248 306.138,141.179 306.062,141.109 305.986,141.039 305.910,140.970 305.833,140.900 305.757,140.831 305.681,140.762 305.604,140.692 305.527,140.623 305.451,140.554 305.374,140.485 305.297,140.416 305.220,140.347 305.143,140.278 305.066,140.209 304.989,140.140 304.912,140.071 304.834,140.003 304.757,139.934 304.679,139.865 304.602,139.797 304.524,139.729 304.446,139.660 304.368,139.592 304.291,139.524 304.213,139.455 304.135,139.387 304.056,139.319 303.978,139.251 303.900,139.183 303.822,139.115 303.743,139.048 303.665,138.980 303.586,138.912 303.507,138.844 303.429,138.777 303.350,138.709 303.271,138.642 303.192,138.575 303.113,138.507 303.034,138.440 302.955,138.373 302.875,138.306 302.796,138.239 302.717,138.172 302.637,138.105 302.557,138.038 302.478,137.971 302.398,137.904 302.318,137.838 302.238,137.771 302.158,137.704 302.078,137.638 301.998,137.571 301.918,137.505 301.838,137.439 301.757,137.372 301.677,137.306 301.597,137.240 301.516,137.174 301.435,137.108 301.355,137.042 301.274,136.976 301.193,136.911 301.112,136.845 301.031,136.779 300.950,136.714 300.869,136.648 300.787,136.583 300.706,136.517 300.625,136.452 300.543,136.386 300.462,136.321 300.380,136.256 300.298,136.191 300.217,136.126 300.135,136.061 300.053,135.996 299.971,135.931 299.889,135.867 299.807,135.802 299.724,135.737 299.642,135.673 299.560,135.608 299.477,135.544 299.395,135.479 299.312,135.415 299.230,135.351 299.147,135.287 299.064,135.222 298.981,135.158 298.898,135.094 298.815,135.031 298.732,134.967 298.649,134.903 298.566,134.839 298.482,134.776 298.399,134.712 298.316,134.648 298.232,134.585 298.149,134.522 298.065,134.458 297.981,134.395 297.897,134.332 297.813,134.269 297.729,134.206 297.645,134.143 297.561,134.080 297.477,134.017 297.393,133.954 297.309,133.891 297.224,133.829 297.140,133.766 297.055,133.704 296.971,133.641 296.886,133.579 296.801,133.516 296.716,133.454 296.631,133.392 296.547,133.330 296.461,133.268 296.376,133.206 296.291,133.144 296.206,133.082 296.121,133.020 296.035,132.959 295.950,132.897 295.864,132.835 295.779,132.774 295.693,132.712 295.607,132.651 295.521,132.590 295.436,132.529 295.350,132.467 295.264,132.406 295.178,132.345 295.091,132.284 295.005,132.223 294.919,132.163 294.833,132.102 294.746,132.041 294.660,131.980 294.573,131.920 294.486,131.859 294.400,131.799 294.313,131.739 294.226,131.678 294.139,131.618 294.052,131.558 293.965,131.498 293.878,131.438 293.791,131.378 293.704,131.318 293.616,131.258 293.529,131.199 293.441,131.139 293.354,131.079 293.266,131.020 293.179,130.960 293.091,130.901 293.003,130.842 292.915,130.782 292.827,130.723 292.739,130.664 292.651,130.605 292.563,130.546 292.475,130.487 292.387,130.428 292.298,130.370 292.210,130.311 292.121,130.252 292.033,130.194 291.944,130.135 291.856,130.077 291.767,130.019 291.678,129.960 291.589,129.902 291.500,129.844 291.411,129.786 291.322,129.728 291.233,129.670 291.144,129.612 291.054,129.555 290.965,129.497 290.876,129.439 290.786,129.382 290.697,129.324 290.607,129.267 290.517,129.209 290.428,129.152 290.338,129.095 290.248,129.038 290.158,128.981 290.068,128.924 289.978,128.867 289.888,128.810 289.798,128.753 289.708,128.697 289.617,128.640 289.527,128.583 289.436,128.527 289.346,128.471 289.255,128.414 289.165,128.358 289.074,128.302 288.983,128.246 288.892,128.190 288.801,128.134 288.711,128.078 288.620,128.022 288.528,127.966 288.437,127.910 288.346,127.855 288.255,127.799 288.163,127.744 288.072,127.688 287.981,127.633 287.889,127.578 287.797,127.522 287.706,127.467 287.614,127.412 287.522,127.357 287.430,127.302 287.339,127.248 218.203,207.812 337.057,207.812 "/>
</g>
<g id="ID000008" clip-path="url(#ID000001)" >
<g>
<circle cx="342.647" cy="62.796" r="5.500" fill="#f70000" stroke="none" stroke-width="0.5pt" />
</g>
</g>
<g id="ID000009" clip-path="url(#ID000001)" >
      <polygon fill="#8c8c8c" fill-opacity="0.45" stroke="#666666" stroke-width="0.1pt" stroke-opacity="1.00" stroke-dasharray="none" points="371.016,207.812 371.016,207.730 371.015,207.647 371.015,207.564 371.015,207.481 371.015,207.398 371.014,207.315 371.014,207.233 371.014,207.150 371.013,207.067 371.012,206.984 371.012,206.901 371.011,206.818 371.010,206.735 371.009,206.653 371.008,206.570 371.007,206.487 371.006,206.404 371.005,206.321 371.004,206.238 371.003,206.155 371.001,206.073 371.000,205.990 370.999,205.907 370.997,205.824 370.995,205.741 370.994,205.658 370.992,205.575 370.990,205.493 370.988,205.410 370.987,205.327 370.985,205.244 370.983,205.161 370.980,205.078 370.978,204.996 370.976,204.913 370.974,204.830 370.971,204.747 370.969,204.664 370.966,204.581 370.964,204.499 370.961,204.416 370.959,204.333 370.956,204.250 370.953,204.167 370.950,204.084 370.947,204.002 370.944,203.919 370.941,203.836 370.938,203.753 370.935,203.670 370.931,203.588 370.928,203.505 370.925,203.422 370.921,203.339 370.918,203.256 370.914,203.174 370.911,203.091 370.907,203.008 370.903,202.925 370.899,202.842 370.895,202.760 370.891,202.677 370.887,202.594 370.883,202.511 370.879,202.428 370.875,202.346 370.870,202.263 370.866,202.180 370.862,202.097 370.857,202.015 370.853,201.932 370.848,201.849 370.843,201.766 370.839,201.684 370.834,201.601 370.829,201.518 370.824,201.435 370.819,201.352 370.814,201.270 370.809,201.187 370.803,201.104 370.798,201.022 370.793,200.939 370.787,200.856 370.782,200.773 370.776,200.691 370.771,200.608 370.765,200.525 370.759,200.442 370.754,200.360 370.748,200.277 370.742,200.194 370.736,200.112 370.730,200.029 370.724,199.946 370.718,199.863 370.711,199.781 370.705,199.698 370.699,199.615 370.692,199.533 370.686,199.450 370.679,199.367 370.673,199.285 370.666,199.202 370.659,199.119 370.652,199.037 370.645,198.954 370.638,198.871 370.631,198.789 370.624,198.706 370.617,198.623 370.610,198.541 370.603,198.458 370.595,198.376 370.588,198.293 370.581,198.210 370.573,198.128 370.565,198.045 370.558,197.962 370.550,197.880 370.542,197.797 370.534,197.715 370.527,197.632 370.519,197.549 370.510,197.467 370.502,197.384 370.494,197.302 370.486,197.219 370.478,197.137 370.469,197.054 370.461,196.971 370.452,196.889 370.444,196.806 370.435,196.724 370.426,196.641 370.418,196.559 370.409,196.476 370.400,196.394 370.391,196.311 370.382,196.229 370.373,196.146 370.364,196.064 370.355,195.981 370.345,195.899 370.336,195.816 370.327,195.734 370.317,195.651 370.308,195.569 370.298,195.486 370.288,195.404 370.279,195.321 370.269,195.239 370.259,195.156 370.249,195.074 370.239,194.992 370.229,194.909 370.219,194.827 370.209,194.744 370.199,194.662 370.188,194.579 370.178,194.497 370.168,194.415 370.157,194.332 370.146,194.250 370.136,194.167 370.125,194.085 370.114,194.003 370.104,193.920 370.093,193.838 370.082,193.756 370.071,193.673 370.060,193.591 370.049,193.509 370.037,193.426 370.026,193.344 370.015,193.262 370.003,193.179 369.992,193.097 369.980,193.015 369.969,192.932 369.957,192.850 369.945,192.768 369.934,192.686 369.922,192.603 369.910,192.521 369.898,192.439 369.886,192.357 369.874,192.274 369.862,192.192 369.849,192.110 369.837,192.028 369.825,191.945 369.812,191.863 369.800,191.781 369.787,191.699 369.775,191.617 369.762,191.534 369.749,191.452 369.736,191.370 369.724,191.288 369.711,191.206 369.698,191.124 369.685,191.042 369.671,190.959 369.658,190.877 369.645,190.795 369.632,190.713 369.618,190.631 369.605,190.549 369.591,190.467 369.578,190.385 369.564,190.303 369.550,190.221 369.537,190.138 369.523,190.056 369.509,189.974 369.495,189.892 369.481,189.810 369.467,189.728 369.453,189.646 369.439,189.564 369.424,189.482 369.410,189.400 369.395,189.318 369.381,189.236 369.366,189.154 369.352,189.072 369.337,188.990 369.322,188.909 369.308,188.827 369.293,188.745 369.278,188.663 369.263,188.581 369.248,188.499 369.233,188.417 369.218,188.335 369.202,188.253 369.187,188.171 369.172,188.090 369.156,188.008 369.141,187.926 369.125,187.844 369.110,187.762 369.094,187.680 369.078,187.599 369.062,187.517 369.046,187.435 369.031,187.353 369.015,187.271 368.998,187.190 368.982,187.108 368.966,187.026 368.950,186.944 368.934,186.863 368.917,186.781 368.901,186.699 368.884,186.618 368.868,186.536 368.851,186.454 368.834,186.372 368.817,186.291 368.801,186.209 368.784,186.127 368.767,186.046 368.750,185.964 368.733,185.883 368.715,185.801 368.698,185.719 368.681,185.638 368.664,185.556 368.646,185.475 368.629,185.393 368.611,185.311 368.594,185.230 368.576,185.148 368.558,185.067 368.540,184.985 368.523,184.904 368.505,184.822 368.487,184.741 368.469,184.659 368.451,184.578 368.432,184.496 368.414,184.415 368.396,184.334 368.377,184.252 368.359,184.171 368.341,184.089 368.322,184.008 368.303,183.927 368.285,183.845 368.266,183.764 368.247,183.682 368.228,183.601 368.209,183.520 368.190,183.438 368.171,183.357 368.152,183.276 368.133,183.194 368.114,183.113 368.094,183.032 368.075,182.951 368.056,182.869 368.036,182.788 368.016,182.707 367.997,182.626 367.977,182.544 367.957,182.463 367.938,182.382 367.918,182.301 367.898,182.220 367.878,182.139 367.858,182.057 367.837,181.976 367.817,181.895 367.797,181.814 367.777,181.733 367.756,181.652 367.736,181.571 367.715,181.490 367.695,181.409 367.674,181.328 367.653,181.246 367.633,181.165 367.612,181.084 367.591,181.003 367.570,180.922 367.549,180.841 367.528,180.760 367.507,180.680 367.485,180.599 367.464,180.518 367.443,180.437 367.421,180.356 367.400,180.275 367.378,180.194 367.357,180.113 367.335,180.032 367.313,179.951 367.292,179.871 367.270,179.790 367.248,179.709 367.226,179.628 367.204,179.547 367.182,179.467 367.160,179.386 367.137,179.305 367.115,179.224 367.093,179.144 367.070,179.063 367.048,178.982 367.025,178.901 367.003,178.821 366.980,178.740 366.957,178.659 366.934,178.579 366.912,178.498 366.889,178.417 366.866,178.337 366.843,178.256 366.820,178.176 366.796,178.095 366.773,178.015 366.750,177.934 366.727,177.853 366.703,177.773 366.680,177.692 366.656,177.612 366.632,177.531 366.609,177.451 366.585,177.370 366.561,177.290 366.537,177.210 366.513,177.129 366.489,177.049 366.465,176.968 366.441,176.888 366.417,176.808 366.393,176.727 366.369,176.647 366.344,176.567 366.320,176.486 366.295,176.406 366.271,176.326 366.246,176.245 366.221,176.165 366.197,176.085 366.172,176.005 366.147,175.924 366.122,175.844 366.097,175.764 366.072,175.684 366.047,175.604 366.022,175.524 365.997,175.443 365.971,175.363 365.946,175.283 365.920,175.203 365.895,175.123 365.869,175.043 365.844,174.963 365.818,174.883 365.792,174.803 365.767,174.723 365.741,174.643 365.715,174.563 365.689,174.483 365.663,174.403 365.637,174.323 365.610,174.243 365.584,174.163 365.558,174.083 365.531,174.003 365.505,173.923 365.479,173.843 365.452,173.764 365.425,173.684 365.399,173.604 365.372,173.524 365.345,173.444 365.318,173.365 365.291,173.285 365.264,173.205 365.237,173.125 365.210,173.046 365.183,172.966 365.156,172.886 365.128,172.807 365.101,172.727 365.074,172.647 365.046,172.568 365.019,172.488 364.991,172.408 364.963,172.329 364.936,172.249 364.908,172.170 364.880,172.090 364.852,172.011 364.824,171.931 364.796,171.852 364.768,171.772 364.740,171.693 364.712,171.613 364.683,171.534 364.655,171.454 364.626,171.375 364.598,171.296 364.569,171.216 364.541,171.137 364.512,171.058 364.483,170.978 364.455,170.899 364.426,170.820 364.397,170.740 364.368,170.661 364.339,170.582 364.310,170.503 364.281,170.423 364.251,170.344 364.222,170.265 364.193,170.186 364.163,170.107 364.134,170.028 364.104,169.949 364.075,169.869 364.045,169.790 364.015,169.711 363.986,169.632 363.956,169.553 363.926,169.474 363.896,169.395 363.866,169.316 363.836,169.237 363.806,169.158 363.775,169.079 363.745,169.000 363.715,168.921 363.684,168.843 363.654,168.764 363.623,168.685 363.593,168.606 363.562,168.527 363.531,168.448 363.501,168.370 363.470,168.291 363.439,168.212 363.408,168.133 363.377,168.055 363.346,167.976 363.315,167.897 363.284,167.819 363.252,167.740 363.221,167.661 363.190,167.583 363.158,167.504 363.127,167.425 363.095,167.347 363.064,167.268 363.032,167.190 363.000,167.111 362.968,167.033 362.936,166.954 362.905,166.876 362.873,166.797 362.840,166.719 362.808,166.641 362.776,166.562 362.744,166.484 362.712,166.405 362.679,166.327 362.647,166.249 362.614,166.170 362.582,166.092 362.549,166.014 362.517,165.936 362.484,165.857 362.451,165.779 362.418,165.701 362.385,165.623 362.352,165.545 362.319,165.466 362.286,165.388 362.253,165.310 362.220,165.232 362.187,165.154 362.153,165.076 362.120,164.998 362.086,164.920 362.053,164.842 362.019,164.764 361.986,164.686 361.952,164.608 361.918,164.530 361.884,164.452 361.850,164.374 361.816,164.296 361.782,164.218 361.748,164.141 361.714,164.063 361.680,163.985 361.646,163.907 361.612,163.829 361.577,163.752 361.543,163.674 361.508,163.596 361.474,163.519 361.439,163.441 361.404,163.363 361.370,163.286 361.335,163.208 361.300,163.130 361.265,163.053 361.230,162.975 361.195,162.898 361.160,162.820 361.125,162.743 361.090,162.665 361.054,162.588 361.019,162.510 360.984,162.433 360.948,162.355 360.913,162.278 360.877,162.201 360.841,162.123 360.806,162.046 360.770,161.969 360.734,161.891 360.698,161.814 360.662,161.737 360.626,161.660 360.590,161.582 360.554,161.505 360.518,161.428 360.482,161.351 360.445,161.274 360.409,161.197 360.372,161.120 360.336,161.043 360.299,160.965 360.263,160.888 360.226,160.811 360.189,160.734 360.153,160.657 360.116,160.580 360.079,160.504 360.042,160.427 360.005,160.350 359.968,160.273 359.931,160.196 359.893,160.119 359.856,160.042 359.819,159.966 359.781,159.889 359.744,159.812 359.707,159.735 359.669,159.659 359.631,159.582 359.594,159.505 359.556,159.429 359.518,159.352 359.480,159.275 359.442,159.199 359.404,159.122 359.366,159.046 359.328,158.969 359.290,158.893 359.252,158.816 359.213,158.740 359.175,158.663 359.137,158.587 359.098,158.510 359.060,158.434 359.021,158.358 358.983,158.281 358.944,158.205 358.905,158.129 358.866,158.052 358.827,157.976 358.788,157.900 358.749,157.824 358.710,157.747 358.671,157.671 358.632,157.595 358.593,157.519 358.554,157.443 358.514,157.367 358.475,157.291 358.435,157.215 358.396,157.139 358.356,157.063 358.316,156.987 358.277,156.911 358.237,156.835 358.197,156.759 358.157,156.683 358.117,156.607 358.077,156.531 358.037,156.455 357.997,156.380 357.957,156.304 357.917,156.228 357.876,156.152 357.836,156.077 357.796,156.001 357.755,155.925 357.715,155.850 357.674,155.774 357.633,155.698 357.593,155.623 357.552,155.547 357.511,155.472 357.470,155.396 357.429,155.321 357.388,155.245 357.347,155.170 357.306,155.094 357.265,155.019 357.223,154.943 357.182,154.868 357.141,154.793 357.099,154.717 357.058,154.642 357.016,154.567 356.975,154.492 356.933,154.416 356.891,154.341 356.850,154.266 356.808,154.191 356.766,154.116 356.724,154.040 356.682,153.965 356.640,153.890 356.598,153.815 356.555,153.740 356.513,153.665 356.471,153.590 356.429,153.515 356.386,153.440 356.344,153.365 356.301,153.291 356.259,153.216 356.216,153.141 356.173,153.066 356.130,152.991 356.088,152.916 356.045,152.842 356.002,152.767 355.959,152.692 355.916,152.618 355.872,152.543 355.829,152.468 355.786,152.394 355.743,152.319 355.699,152.245 355.656,152.170 355.613,152.095 355.569,152.021 355.525,151.946 355.482,151.872 355.438,151.798 355.394,151.723 355.350,151.649 355.307,151.575 355.263,151.500 355.219,151.426 355.175,151.352 355.130,151.277 355.086,151.203 355.042,151.129 354.998,151.055 354.953,150.981 354.909,150.906 354.865,150.832 354.820,150.758 354.775,150.684 354.731,150.610 354.686,150.536 354.641,150.462 354.597,150.388 354.552,150.314 354.507,150.240 354.462,150.166 354.417,150.093 354.372,150.019 354.327,149.945 354.281,149.871 354.236,149.797 354.191,149.724 354.145,149.650 354.100,149.576 354.054,149.502 354.009,149.429 353.963,149.355 353.918,149.282 353.872,149.208 353.826,149.134 353.780,149.061 353.734,148.987 353.688,148.914 353.642,148.841 353.596,148.767 353.550,148.694 353.504,148.620 353.458,148.547 353.411,148.474 353.365,148.400 353.319,148.327 353.272,148.254 353.226,148.181 353.179,148.107 353.132,148.034 353.086,147.961 353.039,147.888 352.992,147.815 352.945,147.742 352.898,147.669 352.851,147.596 352.804,147.523 352.757,147.450 352.710,147.377 352.663,147.304 352.616,147.231 352.568,147.158 352.521,147.085 352.473,147.013 352.426,146.940 352.378,146.867 352.331,146.794 352.283,146.722 352.235,146.649 352.188,146.576 352.140,146.504 352.092,146.431 352.044,146.358 351.996,146.286 351.948,146.213 351.900,146.141 351.851,146.068 351.803,145.996 351.755,145.923 351.707,145.851 351.658,145.779 351.610,145.706 351.561,145.634 351.513,145.562 351.464,145.489 351.415,145.417 351.367,145.345 351.318,145.273 351.269,145.201 351.220,145.128 351.171,145.056 351.122,144.984 351.073,144.912 351.024,144.840 350.975,144.768 350.925,144.696 350.876,144.624 350.827,144.552 350.777,144.480 350.728,144.409 350.678,144.337 350.629,144.265 350.579,144.193 350.529,144.121 350.480,144.050 350.430,143.978 350.380,143.906 350.330,143.835 350.280,143.763 350.230,143.691 350.180,143.620 350.130,143.548 350.079,143.477 350.029,143.405 349.979,143.334 349.928,143.262 349.878,143.191 349.828,143.120 349.777,143.048 349.726,142.977 349.676,142.906 349.625,142.834 349.574,142.763 349.524,142.692 349.473,142.621 349.422,142.549 349.371,142.478 349.320,142.407 349.269,142.336 349.217,142.265 349.166,142.194 349.115,142.123 349.064,142.052 349.012,141.981 348.961,141.910 348.909,141.839 348.858,141.768 348.806,141.698 348.755,141.627 348.703,141.556 348.651,141.485 348.599,141.415 348.547,141.344 348.496,141.273 348.444,141.203 348.392,141.132 348.339,141.061 348.287,140.991 348.235,140.920 348.183,140.850 348.130,140.779 348.078,140.709 348.026,140.639 347.973,140.568 347.921,140.498 347.868,140.428 347.815,140.357 347.763,140.287 347.710,140.217 347.657,140.147 347.604,140.076 347.551,140.006 347.498,139.936 347.445,139.866 347.392,139.796 347.339,139.726 347.286,139.656 347.233,139.586 347.180,139.516 347.126,139.446 347.073,139.376 347.019,139.306 346.966,139.237 346.912,139.167 346.859,139.097 346.805,139.027 346.751,138.957 346.697,138.888 346.644,138.818 346.590,138.749 346.536,138.679 346.482,138.609 346.428,138.540 346.374,138.470 346.319,138.401 346.265,138.331 346.211,138.262 346.157,138.193 346.102,138.123 346.048,138.054 345.993,137.985 345.939,137.915 345.884,137.846 345.829,137.777 345.775,137.708 345.720,137.638 345.665,137.569 345.610,137.500 345.555,137.431 345.500,137.362 345.445,137.293 345.390,137.224 345.335,137.155 345.280,137.086 345.225,137.017 345.169,136.949 345.114,136.880 345.059,136.811 345.003,136.742 344.948,136.673 344.892,136.605 344.836,136.536 344.781,136.467 344.725,136.399 344.669,136.330 344.613,136.262 344.557,136.193 344.502,136.125 344.446,136.056 344.389,135.988 344.333,135.919 344.277,135.851 344.221,135.783 344.165,135.714 344.108,135.646 344.052,135.578 343.996,135.510 343.939,135.441 343.883,135.373 343.826,135.305 343.769,135.237 343.713,135.169 343.656,135.101 343.599,135.033 343.542,134.965 343.485,134.897 343.428,134.829 343.371,134.761 343.314,134.693 343.257,134.625 343.200,134.558 343.143,134.490 343.086,134.422 343.028,134.354 342.971,134.287 342.913,134.219 342.856,134.152 342.798,134.084 342.741,134.016 342.683,133.949 342.625,133.881 342.568,133.814 342.510,133.747 342.452,133.679 342.394,133.612 342.336,133.545 342.278,133.477 342.220,133.410 342.162,133.343 342.104,133.276 342.046,133.208 341.987,133.141 341.929,133.074 341.871,133.007 341.812,132.940 341.754,132.873 341.695,132.806 341.637,132.739 341.578,132.672 341.519,132.605 341.460,132.539 341.402,132.472 341.343,132.405 341.284,132.338 341.225,132.271 341.166,132.205 341.107,132.138 341.048,132.071 340.989,132.005 340.929,131.938 340.870,131.872 340.811,131.805 340.751,131.739 340.692,131.672 340.633,131.606 340.573,131.540 340.513,131.473 340.454,131.407 340.394,131.341 340.334,131.275 340.275,131.208 340.215,131.142 340.155,131.076 340.095,131.010 340.035,130.944 339.975,130.878 339.915,130.812 339.855,130.746 218.203,207.812 371.016,207.812 "/>
</g>
<g id="ID000010" clip-path="url(#ID000001)" >
<g>
<circle cx="388.515" cy="99.919" r="5.500" fill="#f16a75" stroke="none" stroke-width="0.5pt" />
</g>
</g>
    </g>
  </g>
  </g>
</svg>
